<svg xmlns="http://www.w3.org/2000/svg" xmlns:xlink="http://www.w3.org/1999/xlink" width="128" zoomAndPan="magnify" viewBox="0 0 96 95.999999" height="128" preserveAspectRatio="xMidYMid meet" version="1.0"><defs><clipPath id="f6585142fd"><path d="M 11.25 0 L 84.75 0 C 87.734375 0 90.59375 1.183594 92.703125 3.296875 C 94.816406 5.40625 96 8.265625 96 11.25 L 96 84.75 C 96 87.734375 94.816406 90.59375 92.703125 92.703125 C 90.59375 94.816406 87.734375 96 84.75 96 L 11.25 96 C 8.265625 96 5.40625 94.816406 3.296875 92.703125 C 1.183594 90.59375 0 87.734375 0 84.75 L 0 11.25 C 0 8.265625 1.183594 5.40625 3.296875 3.296875 C 5.40625 1.183594 8.265625 0 11.25 0 Z M 11.25 0 " clip-rule="nonzero"/></clipPath><clipPath id="47e4484de5"><path d="M 23.75 0 L 96 0 L 96 72 L 23.75 72 Z M 23.75 0 " clip-rule="nonzero"/></clipPath><clipPath id="50a52f6d1f"><path d="M 31.246094 -71.996094 L 160.34375 -71.996094 C 162.332031 -71.996094 164.238281 -71.207031 165.644531 -69.800781 C 167.050781 -68.394531 167.84375 -66.484375 167.84375 -64.496094 L 167.84375 64.496094 C 167.84375 66.484375 167.050781 68.394531 165.644531 69.800781 C 164.238281 71.207031 162.332031 71.996094 160.34375 71.996094 L 31.246094 71.996094 C 29.257812 71.996094 27.351562 71.207031 25.945312 69.800781 C 24.539062 68.394531 23.75 66.484375 23.75 64.496094 L 23.75 -64.496094 C 23.75 -66.484375 24.539062 -68.394531 25.945312 -69.800781 C 27.351562 -71.207031 29.257812 -71.996094 31.246094 -71.996094 Z M 31.246094 -71.996094 " clip-rule="nonzero"/></clipPath><clipPath id="4878826357"><path d="M 0 24.003906 L 71.949219 24.003906 L 71.949219 96 L 0 96 Z M 0 24.003906 " clip-rule="nonzero"/></clipPath><clipPath id="ebed7dba68"><path d="M -64.550781 24.003906 L 64.542969 24.003906 C 66.53125 24.003906 68.441406 24.792969 69.847656 26.199219 C 71.253906 27.605469 72.042969 29.515625 72.042969 31.503906 L 72.042969 160.496094 C 72.042969 162.484375 71.253906 164.394531 69.847656 165.800781 C 68.441406 167.207031 66.53125 167.996094 64.542969 167.996094 L -64.550781 167.996094 C -66.539062 167.996094 -68.449219 167.207031 -69.855469 165.800781 C -71.261719 164.394531 -72.050781 162.484375 -72.050781 160.496094 L -72.050781 31.503906 C -72.050781 29.515625 -71.261719 27.605469 -69.855469 26.199219 C -68.449219 24.792969 -66.539062 24.003906 -64.550781 24.003906 Z M -64.550781 24.003906 " clip-rule="nonzero"/></clipPath></defs><g clip-path="url(#f6585142fd)"><path stroke-linecap="butt" transform="matrix(0.75, 0, 0, 0.75, 0.0000005, 0.000002)" fill="none" stroke-linejoin="miter" d="M 14.999999 -0.00000266667 L 112.999998 -0.00000266667 C 116.979165 -0.00000266667 120.791665 1.578122 123.604165 4.395831 C 126.421873 7.208331 127.999998 11.020831 127.999998 14.999997 L 127.999998 112.999996 C 127.999998 116.979163 126.421873 120.791663 123.604165 123.604163 C 120.791665 126.421871 116.979165 127.999996 112.999998 127.999996 L 14.999999 127.999996 C 11.020833 127.999996 7.208333 126.421871 4.395833 123.604163 C 1.578124 120.791663 -0.000000666667 116.979163 -0.000000666667 112.999996 L -0.000000666667 14.999997 C -0.000000666667 11.020831 1.578124 7.208331 4.395833 4.395831 C 7.208333 1.578122 11.020833 -0.00000266667 14.999999 -0.00000266667 Z M 14.999999 -0.00000266667 " stroke="#0097b2" stroke-width="16" stroke-opacity="1" stroke-miterlimit="4"/></g><g clip-path="url(#47e4484de5)"><g clip-path="url(#50a52f6d1f)"><path stroke-linecap="butt" transform="matrix(0.75, 0, 0, 0.75, 23.748332, -71.996538)" fill="none" stroke-linejoin="miter" d="M 9.997017 0.000592667 L 182.127234 0.000592667 C 184.778276 0.000592667 187.319943 1.052676 189.194943 2.927676 C 191.069943 4.802676 192.127234 7.349551 192.127234 10.000593 L 192.127234 181.990185 C 192.127234 184.641227 191.069943 187.188102 189.194943 189.063103 C 187.319943 190.938103 184.778276 191.990186 182.127234 191.990186 L 9.997017 191.990186 C 7.345975 191.990186 4.804308 190.938103 2.929308 189.063103 C 1.054308 187.188102 0.00222445 184.641227 0.00222445 181.990185 L 0.00222445 10.000593 C 0.00222445 7.349551 1.054308 4.802676 2.929308 2.927676 C 4.804308 1.052676 7.345975 0.000592667 9.997017 0.000592667 Z M 9.997017 0.000592667 " stroke="#0097b2" stroke-width="16" stroke-opacity="1" stroke-miterlimit="4"/></g></g><g clip-path="url(#4878826357)"><g clip-path="url(#ebed7dba68)"><path stroke-linecap="butt" transform="matrix(0.75, 0, 0, 0.75, -72.050329, 24.003456)" fill="none" stroke-linejoin="miter" d="M 9.999397 0.000600294 L 182.124406 0.000600294 C 184.775448 0.000600294 187.322323 1.052684 189.197323 2.927684 C 191.072323 4.802684 192.124406 7.349559 192.124406 10.000601 L 192.124406 181.990193 C 192.124406 184.641235 191.072323 187.18811 189.197323 189.06311 C 187.322323 190.93811 184.775448 191.990194 182.124406 191.990194 L 9.999397 191.990194 C 7.348355 191.990194 4.80148 190.93811 2.92648 189.06311 C 1.05148 187.18811 -0.000603604 184.641235 -0.000603604 181.990193 L -0.000603604 10.000601 C -0.000603604 7.349559 1.05148 4.802684 2.92648 2.927684 C 4.80148 1.052684 7.348355 0.000600294 9.999397 0.000600294 Z M 9.999397 0.000600294 " stroke="#0097b2" stroke-width="16" stroke-opacity="1" stroke-miterlimit="4"/></g></g></svg>