<svg xmlns="http://www.w3.org/2000/svg" xmlns:xlink="http://www.w3.org/1999/xlink" width="1024" zoomAndPan="magnify" viewBox="0 0 768 767.999994" height="1024" preserveAspectRatio="xMidYMid meet" version="1.2"><defs><clipPath id="f1a0e73f60"><path d="M 49.722656 49.722656 L 718.277344 49.722656 L 718.277344 718.277344 L 49.722656 718.277344 Z M 49.722656 49.722656 "/></clipPath><clipPath id="c03393cf45"><path d="M 227.628906 227.628906 L 540.371094 227.628906 L 540.371094 540.371094 L 227.628906 540.371094 Z M 227.628906 227.628906 "/></clipPath><clipPath id="4dbd3c2f8c"><path d="M 49.722656 49.722656 L 191.226562 49.722656 L 191.226562 191.226562 L 49.722656 191.226562 Z M 49.722656 49.722656 "/></clipPath><clipPath id="3c434f3bd9"><path d="M 576.773438 576.773438 L 718.277344 576.773438 L 718.277344 718.277344 L 576.773438 718.277344 Z M 576.773438 576.773438 "/></clipPath><clipPath id="64ee4a3120"><path d="M 191.226562 0 L 768 0 L 768 576.773438 L 191.226562 576.773438 Z M 191.226562 0 "/></clipPath><clipPath id="3d53902e22"><path d="M 909 -38.460938 L 909 474.234375 C 909 501.429688 898.195312 527.511719 878.964844 546.738281 C 859.738281 565.96875 833.65625 576.773438 806.460938 576.773438 L 293.765625 576.773438 C 266.570312 576.773438 240.488281 565.96875 221.261719 546.738281 C 202.03125 527.511719 191.226562 501.429688 191.226562 474.234375 L 191.226562 -38.460938 C 191.226562 -65.65625 202.03125 -91.738281 221.261719 -110.964844 C 240.488281 -130.195312 266.570312 -141 293.765625 -141 L 806.460938 -141 C 833.65625 -141 859.738281 -130.195312 878.964844 -110.964844 C 898.195312 -91.738281 909 -65.65625 909 -38.460938 Z M 909 -38.460938 "/></clipPath><clipPath id="f16ad808d7"><path d="M 0 191.226562 L 576.773438 191.226562 L 576.773438 768 L 0 768 Z M 0 191.226562 "/></clipPath><clipPath id="f461c3a4b1"><path d="M 576.773438 293.765625 L 576.773438 806.460938 C 576.773438 833.65625 565.96875 859.738281 546.738281 878.964844 C 527.511719 898.195312 501.429688 909 474.234375 909 L -38.460938 909 C -65.65625 909 -91.738281 898.195312 -110.964844 878.964844 C -130.195312 859.738281 -141 833.65625 -141 806.460938 L -141 293.765625 C -141 266.570312 -130.195312 240.488281 -110.964844 221.261719 C -91.738281 202.03125 -65.65625 191.226562 -38.460938 191.226562 L 474.234375 191.226562 C 501.429688 191.226562 527.511719 202.03125 546.738281 221.261719 C 565.96875 240.488281 576.773438 266.570312 576.773438 293.765625 Z M 576.773438 293.765625 "/></clipPath><clipPath id="207c3e238a"><path d="M 768.519531 102.019531 L 768.519531 665.980469 C 768.519531 693.175781 757.71875 719.261719 738.484375 738.484375 C 719.261719 757.71875 693.175781 768.519531 665.980469 768.519531 L 102.015625 768.519531 C 74.824219 768.519531 48.738281 757.71875 29.515625 738.484375 C 10.28125 719.261719 -0.523438 693.175781 -0.523438 665.980469 L -0.523438 102.019531 C -0.523438 74.824219 10.28125 48.738281 29.515625 29.515625 C 48.738281 10.28125 74.824219 -0.519531 102.015625 -0.519531 L 665.980469 -0.519531 C 693.175781 -0.519531 719.261719 10.28125 738.484375 29.515625 C 757.71875 48.738281 768.519531 74.824219 768.519531 102.019531 Z M 768.519531 102.019531 "/></clipPath></defs><g id="1099101a41"><g clip-rule="nonzero" clip-path="url(#f1a0e73f60)"><path style=" stroke:none;fill-rule:nonzero;fill:#054678;fill-opacity:1;" d="M 49.722656 49.722656 L 718.277344 49.722656 L 718.277344 718.277344 L 49.722656 718.277344 Z M 49.722656 49.722656 "/></g><g clip-rule="nonzero" clip-path="url(#c03393cf45)"><path style=" stroke:none;fill-rule:nonzero;fill:#ffde59;fill-opacity:1;" d="M 227.628906 227.628906 L 540.371094 227.628906 L 540.371094 540.371094 L 227.628906 540.371094 Z M 227.628906 227.628906 "/></g><g clip-rule="nonzero" clip-path="url(#4dbd3c2f8c)"><path style=" stroke:none;fill-rule:nonzero;fill:#00781e;fill-opacity:1;" d="M 49.722656 49.722656 L 191.226562 49.722656 L 191.226562 191.226562 L 49.722656 191.226562 Z M 49.722656 49.722656 "/></g><g clip-rule="nonzero" clip-path="url(#3c434f3bd9)"><path style=" stroke:none;fill-rule:nonzero;fill:#00781e;fill-opacity:1;" d="M 576.773438 576.773438 L 718.277344 576.773438 L 718.277344 718.277344 L 576.773438 718.277344 Z M 576.773438 576.773438 "/></g><g clip-rule="nonzero" clip-path="url(#64ee4a3120)"><g clip-rule="nonzero" clip-path="url(#3d53902e22)"><path style="fill:none;stroke-width:100;stroke-linecap:butt;stroke-linejoin:miter;stroke:#ffffff;stroke-opacity:1;stroke-miterlimit:4;" d="M 99.999951 -0.000157966 L 599.999981 -0.000157966 C 626.521887 -0.000157966 651.958079 10.536986 670.708556 29.291272 C 689.462843 48.04175 699.999986 73.477942 699.999986 99.999848 L 699.999986 599.999877 C 699.999986 626.521783 689.462843 651.957975 670.708556 670.708453 C 651.958079 689.462739 626.521887 699.999883 599.999981 699.999883 L 99.999951 699.999883 C 73.478045 699.999883 48.041853 689.462739 29.291376 670.708453 C 10.537089 651.957975 -0.0000543954 626.521783 -0.0000543954 599.999877 L -0.0000543954 99.999848 C -0.0000543954 73.477942 10.537089 48.04175 29.291376 29.291272 C 48.041853 10.536986 73.478045 -0.000157966 99.999951 -0.000157966 Z M 99.999951 -0.000157966 " transform="matrix(0,1.025391,-1.025391,0,908.999838,-140.999944)"/></g></g><g clip-rule="nonzero" clip-path="url(#f16ad808d7)"><g clip-rule="nonzero" clip-path="url(#f461c3a4b1)"><path style="fill:none;stroke-width:100;stroke-linecap:butt;stroke-linejoin:miter;stroke:#ffffff;stroke-opacity:1;stroke-miterlimit:4;" d="M 99.999996 -0.000084883 L 600.000026 -0.000084883 C 626.521932 -0.000084883 651.958124 10.537059 670.708601 29.291345 C 689.462888 48.041823 700.000031 73.478015 700.000031 99.999921 L 700.000031 599.99995 C 700.000031 626.521856 689.462888 651.958048 670.708601 670.708526 C 651.958124 689.462812 626.521932 699.999956 600.000026 699.999956 L 99.999996 699.999956 C 73.47809 699.999956 48.041898 689.462812 29.291421 670.708526 C 10.537134 651.958048 -0.00000939961 626.521856 -0.00000939961 599.99995 L -0.00000939961 99.999921 C -0.00000939961 73.478015 10.537134 48.041823 29.291421 29.291345 C 48.041898 10.537059 73.47809 -0.000084883 99.999996 -0.000084883 Z M 99.999996 -0.000084883 " transform="matrix(0,1.025391,-1.025391,0,576.77335,191.226572)"/></g></g><g clip-rule="nonzero" clip-path="url(#207c3e238a)"><path style="fill:none;stroke-width:100;stroke-linecap:butt;stroke-linejoin:miter;stroke:#ffffff;stroke-opacity:1;stroke-miterlimit:4;" d="M 100.001877 0.00181172 L 650.001909 0.00181172 C 676.520006 0.00181172 701.960007 10.535146 720.706675 29.293242 C 739.464771 48.03991 750.001915 73.479911 750.001915 100.001818 L 750.001915 650.00185 C 750.001915 676.519946 739.464771 701.959948 720.706675 720.706616 C 701.960007 739.464712 676.520006 750.001855 650.001909 750.001855 L 100.001877 750.001855 C 73.47997 750.001855 48.039969 739.464712 29.293301 720.706616 C 10.535205 701.959948 0.00187094 676.519946 0.00187094 650.00185 L 0.00187094 100.001818 C 0.00187094 73.479911 10.535205 48.03991 29.293301 29.293242 C 48.039969 10.535146 73.47997 0.00181172 100.001877 0.00181172 Z M 100.001877 0.00181172 " transform="matrix(0,1.025391,-1.025391,0,768.521389,-0.52145)"/></g></g></svg>