<svg xmlns="http://www.w3.org/2000/svg" xmlns:xlink="http://www.w3.org/1999/xlink" width="40.64mm" height="48.006mm" viewBox="3988 3245.9 64 75.6"><title></title><style type="text/css">
*[layerid="1"] {stroke:#000000;fill:#000000;}
*[layerid="2"] {stroke:#000000;fill:#000000;}
*[layerid="3"] {stroke:#000000;fill:#000000;}
*[layerid="4"] {stroke:#000000;fill:#000000;}
*[layerid="5"] {stroke:#000000;fill:#000000;}
*[layerid="6"] {stroke:#000000;fill:#000000;}
*[layerid="7"] {stroke:#000000;fill:#000000;}
*[layerid="8"] {stroke:#000000;fill:#000000;}
*[layerid="9"] {stroke:#000000;fill:#000000;}
*[layerid="10"] {stroke:#000000;fill:#000000;}
*[layerid="11"] {stroke:#000000;fill:#000000;}
*[layerid="12"] {stroke:#000000;fill:#000000;}
*[layerid="13"] {stroke:#000000;fill:#000000;}
*[layerid="14"] {stroke:#000000;fill:#000000;}
*[layerid="15"] {stroke:#000000;fill:#000000;}
*[layerid="19"] {stroke:#000000;fill:#000000;}
*[layerid="21"] {stroke:#000000;fill:#000000;}
*[layerid="22"] {stroke:#000000;fill:#000000;}
*[layerid="23"] {stroke:#000000;fill:#000000;}
*[layerid="24"] {stroke:#000000;fill:#000000;}
*[layerid="25"] {stroke:#000000;fill:#000000;}
*[layerid="26"] {stroke:#000000;fill:#000000;}
*[layerid="27"] {stroke:#000000;fill:#000000;}
*[layerid="28"] {stroke:#000000;fill:#000000;}
*[layerid="29"] {stroke:#000000;fill:#000000;}
*[layerid="30"] {stroke:#000000;fill:#000000;}
*[layerid="31"] {stroke:#000000;fill:#000000;}
*[layerid="32"] {stroke:#000000;fill:#000000;}
*[layerid="33"] {stroke:#000000;fill:#000000;}
*[layerid="34"] {stroke:#000000;fill:#000000;}
*[layerid="35"] {stroke:#000000;fill:#000000;}
*[layerid="36"] {stroke:#000000;fill:#000000;}
*[layerid="37"] {stroke:#000000;fill:#000000;}
*[layerid="38"] {stroke:#000000;fill:#000000;}
*[layerid="39"] {stroke:#000000;fill:#000000;}
*[layerid="40"] {stroke:#000000;fill:#000000;}
*[layerid="41"] {stroke:#000000;fill:#000000;}
*[layerid="42"] {stroke:#000000;fill:#000000;}
*[layerid="43"] {stroke:#000000;fill:#000000;}
*[layerid="44"] {stroke:#000000;fill:#000000;}
*[layerid="45"] {stroke:#000000;fill:#000000;}
*[layerid="46"] {stroke:#000000;fill:#000000;}
*[layerid="47"] {stroke:#000000;fill:#000000;}
*[layerid="48"] {stroke:#000000;fill:#000000;}
*[layerid="49"] {stroke:#000000;fill:#000000;}
*[layerid="50"] {stroke:#000000;fill:#000000;}
*[layerid="51"] {stroke:#000000;fill:#000000;}
*[layerid="52"] {stroke:#000000;fill:#000000;}
*[layerid="99"] {stroke:#000000;fill:#000000;}
*[layerid="100"] {stroke:#000000;fill:#000000;}
*[layerid="101"] {stroke:#000000;fill:#000000;}
*[layerid="Hole"] {stroke:#000000;fill:#000000;}
*[layerid="DRCError"] {stroke:#000000;fill:#000000;}
*[fill="none"] {fill: none;}
*[stroke="none"] {stroke: none;}
path, polyline, polygon, line {stroke-linecap:round;}
g[c_partid="part_pad"][layerid="1"] ellipse:not([c_etype="pad_outer"]) {fill:#000000;}
g[c_partid="part_pad"][layerid="1"] polygon:not([c_etype="pad_outer"]) {fill:#000000;}
g[c_partid="part_pad"][layerid="1"] polyline:not([c_etype="pad_outer"]) {stroke:#000000;}
g[c_partid="part_pad"][layerid="2"] ellipse:not([c_etype="pad_outer"]) {fill:#000000;}
g[c_partid="part_pad"][layerid="2"] polygon:not([c_etype="pad_outer"]) {fill:#000000;}
g[c_partid="part_pad"][layerid="2"] polyline:not([c_etype="pad_outer"]) {stroke:#000000;}
g[c_partid="part_pad"][layerid="11"] ellipse:not([c_etype="pad_outer"]) {fill:#000000;}
g[c_partid="part_pad"][layerid="11"] polygon:not([c_etype="pad_outer"]) {fill:#000000;}
g[c_partid="part_pad"][layerid="11"] polyline:not([c_etype="pad_outer"]) {stroke:#000000;}
g[c_partid="part_pad"][layerid="11"] circle {fill:#FFFFFF;}
g[c_partid="part_pad"][layerid="11"] > polyline:nth-of-type(2) {stroke:#FFFFFF;}
g[c_partid="part_pad"][layerid="11"][c_shape="ELLIPSE"]  polyline:nth-last-of-type(1) {stroke:#FFFFFF;}
g[c_partid="part_pad"][layerid="11"][c_shape="RECT"]  polyline:nth-last-of-type(1) {stroke:#FFFFFF;}
g[c_partid="part_pad"][layerid="11"][c_shape="POLYGON"]  polyline:nth-last-of-type(1) {stroke:#FFFFFF;}
g[c_partid="part_via"] > * + circle, #gCurParts g[c_partid="part_via"] > * + circle {fill:#FFFFFF;}
g[c_partid="part_pad"] > polygon[c_etype="pad_outer"], #gCurParts g[c_partid="part_pad"] > polygon[c_etype="pad_outer"] {stroke-linejoin: round;stroke-miterlimit: 100;}
g[c_partid="part_hole"] > circle {fill: #FFFFFF;}path, polyline, polygon {stroke-linejoin:round;}
rect, circle, ellipse, polyline, line, polygon, path {shape-rendering:crispEdges;}
</style>
<rect x="3988" y="3245.9" width="64" height="75.6" fill="#FFFFFF" stroke="none"/><path d="M 4029.51446 3280.62264 L 4029.36138 3280.59219 4029.23161 3280.50547 4027.60725 3278.88107 4027.52055 3278.7513 4027.4901 3278.59823 4027.4901 3275.66906 4027.50036 3275.44853 4027.58321 3275.30346 4027.71809 3275.20489 4027.88147 3275.17 4028.49471 3275.17 4028.64778 3275.20045 4028.77755 3275.28716 4030.54284 3277.05245 4030.62955 3277.18222 4030.66 3277.33529 4030.66 3279.83299 4030.6337 3279.97564 4030.55826 3280.09953 4030.44359 3280.18837 4030.28114 3280.23314 4030.06609 3280.30839 4029.87317 3280.42961 4029.7973 3280.50548 4029.66753 3280.59219 4029.51446 3280.62264 Z " stroke-width="0" layerid="1" attachedcopperid="gge3577" c_shapetype="line" id="gge3577_0" class=""></path><path d="M 4010.08307 3291.07645 L 4009.93 3291.1069 4007.1699 3291.1069 4007.01683 3291.07645 4006.88706 3290.98974 4006.80035 3290.85997 4006.7699 3290.7069 4006.7699 3286.5822 4006.80035 3286.42913 4006.88706 3286.29936 4007.01683 3286.21265 4007.1699 3286.1822 4009.93 3286.1822 4010.08307 3286.21265 4010.21284 3286.29936 4010.29955 3286.42913 4010.33 3286.5822 4010.33 3290.7069 4010.29955 3290.85997 4010.21284 3290.98974 4010.08307 3291.07645 Z " stroke-width="0" layerid="1" attachedcopperid="gge3577" c_shapetype="line" id="gge3577_1" class=""></path><path d="M 4025.38521 3291.1201 L 4025.26809 3291.1069 4022.1011 3291.1069 4021.94803 3291.07645 4021.81826 3290.98974 4021.73155 3290.85997 4021.7011 3290.7069 4021.7011 3286.63759 4021.73155 3286.48452 4021.81826 3286.35475 4021.87365 3286.29936 4022.00342 3286.21265 4022.15649 3286.1822 4025.17019 3286.1822 4025.38521 3286.15797 4025.55147 3286.17435 4025.69654 3286.2572 4025.79511 3286.39208 4025.83 3286.55546 4025.83 3290.72261 4025.79511 3290.88599 4025.69654 3291.02087 4025.55147 3291.10372 4025.38521 3291.1201 Z " stroke-width="0" layerid="1" attachedcopperid="gge3577" c_shapetype="line" id="gge3577_2" class=""></path><path d="M 3999.42 3310.48 L 3999.26693 3310.44955 3999.13716 3310.36284 3999.05045 3310.23307 3999.02 3310.08 3999.02 3257.32 3999.05045 3257.16693 3999.13716 3257.03716 3999.26693 3256.95045 3999.42 3256.92 4040.58 3256.92 4040.73307 3256.95045 4040.86284 3257.03716 4040.94955 3257.16693 4040.98 3257.32 4040.98 3310.08 4040.94955 3310.23307 4040.86284 3310.36284 4040.73307 3310.44955 4040.58 3310.48 3999.42 3310.48 Z M 4031.42714 3308.83841 L 4031.67601 3308.86645 4038.32399 3308.86645 4038.57286 3308.83841 4038.78791 3308.76316 4038.98083 3308.64194 4039.14194 3308.48083 4039.26316 3308.28791 4039.33841 3308.07286 4039.36645 3307.82399 4039.36645 3301.17601 4039.33841 3300.92714 4039.26316 3300.71209 4039.14194 3300.51917 4038.98083 3300.35806 4038.78791 3300.23684 4038.57286 3300.16159 4038.32399 3300.13355 4036.92 3300.13355 4036.76693 3300.1031 4036.63716 3300.01639 4036.55045 3299.88662 4036.52 3299.73355 4036.52 3299.01965 4036.4889 3298.70384 4036.40251 3298.41906 4036.26222 3298.15661 4036.06091 3297.9113 4035.1187 3296.96909 4034.86905 3296.76422 4034.74824 3296.61072 4034.58713 3296.44961 4034.39421 3296.32839 4034.17916 3296.25314 4033.93029 3296.2251 4030.43191 3296.2251 4030.18304 3296.25314 4029.96799 3296.32839 4029.77507 3296.44961 4029.48911 3296.74095 4029.32962 3296.80183 4029.15927 3296.79066 4029.00909 3296.70948 4028.90643 3296.57308 4028.87 3296.40629 4028.87 3294.54051 4028.90643 3294.37372 4029.00909 3294.23732 4029.15927 3294.15614 4029.32962 3294.14497 4029.48911 3294.20585 4029.77507 3294.49719 4029.96799 3294.61841 4030.18304 3294.69366 4030.43191 3294.7217 4033.93029 3294.7217 4034.17916 3294.69366 4034.39421 3294.61841 4034.59977 3294.48455 4034.67697 3294.4243 4034.7665 3294.38462 4034.99004 3294.31681 4035.25249 3294.17652 4035.4978 3293.97521 4036.21091 3293.2621 4036.41222 3293.01679 4036.55251 3292.75434 4036.6389 3292.46956 4036.67 3292.15375 4036.67 3282.69304 4036.63892 3282.37734 4036.55255 3282.09255 4036.41228 3281.83009 4036.21098 3281.58477 4035.47977 3280.85346 4035.23447 3280.65213 4034.97203 3280.51183 4034.68726 3280.42542 4034.45007 3280.39163 4034.29672 3280.30881 4033.91641 3280.18819 4033.80174 3280.09935 4033.7263 3279.97546 4033.7 3279.83281 4033.7 3276.55965 4033.6689 3276.24384 4033.58251 3275.95906 4033.44222 3275.69661 4033.24091 3275.4513 4030.3787 3272.58909 4030.19544 3272.4387 4030.0876 3272.30052 4030.0492 3272.1295 4030.0492 3269.36609 4030.07965 3269.21302 4030.16636 3269.08325 4030.5409 3268.70871 4030.65019 3268.63116 4030.77895 3268.59407 4030.91275 3268.60158 4031.03655 3268.65286 4031.21209 3268.76316 4031.42714 3268.83841 4031.67601 3268.86645 4038.32399 3268.86645 4038.57286 3268.83841 4038.78791 3268.76316 4038.98083 3268.64194 4039.14194 3268.48083 4039.26316 3268.28791 4039.33841 3268.07286 4039.36645 3267.82399 4039.36645 3261.17601 4039.33841 3260.92714 4039.26316 3260.71209 4039.14194 3260.51917 4038.98083 3260.35806 4038.78791 3260.23684 4038.57286 3260.16159 4038.32399 3260.13355 4031.67601 3260.13355 4031.42714 3260.16159 4031.21209 3260.23684 4031.01917 3260.35806 4030.85806 3260.51917 4030.73684 3260.71209 4030.66159 3260.92714 4030.63355 3261.17601 4030.63355 3264.15116 4030.6031 3264.30423 4030.51639 3264.434 4030.04118 3264.90922 4029.90745 3264.99754 4029.74979 3265.02628 4029.5935 3264.99083 4029.46367 3264.89687 4029.38114 3264.75949 4029.35916 3264.60075 4029.36563 3264.5 4029.32978 3263.94174 4029.22285 3263.39264 4029.04657 3262.86172 4028.80385 3262.35771 4028.49867 3261.88887 4028.13604 3261.46291 4027.72192 3261.08682 4027.26311 3260.76677 4026.76713 3260.50802 4026.24214 3260.31481 4025.69675 3260.19033 4025.13993 3260.13662 4024.5808 3260.15455 4024.02856 3260.24383 4023.49227 3260.403 4022.98073 3260.62944 4022.50235 3260.91943 4022.06499 3261.26822 4021.67581 3261.67008 4021.34122 3262.1184 4021.06671 3262.60583 4020.85678 3263.12436 4020.71488 3263.66547 4020.64334 3264.22029 4020.64334 3264.77971 4020.71488 3265.33453 4020.85678 3265.87564 4021.06671 3266.39417 4021.34122 3266.8816 4021.69117 3267.3505 4021.7502 3267.46362 4021.77061 3267.58956 4021.771 3268.44107 4021.74855 3268.57337 4021.67884 3268.77259 4021.6508 3269.02146 4021.6508 3272.27713 4021.68519 3272.5743 4021.68101 3272.69386 4021.64167 3272.80683 4021.57068 3272.90312 4016.11918 3278.35471 4015.91788 3278.60001 4015.77759 3278.86246 4015.6912 3279.14724 4015.6601 3279.46305 4015.6601 3279.83298 4015.6338 3279.97563 4015.55836 3280.09952 4015.44369 3280.18836 4015.28114 3280.23314 4015.06609 3280.30839 4014.94334 3280.37286 4014.85281 3280.39243 4014.51259 3280.42548 4014.22806 3280.51179 4013.95856 3280.65584 4013.80138 3280.70184 4013.63895 3280.681 4013.49848 3280.5968 4013.40352 3280.46337 4013.37 3280.30308 4013.37 3276.34529 4013.40045 3276.19222 4013.48716 3276.06245 4016.06091 3273.4887 4016.26222 3273.24339 4016.40251 3272.98094 4016.4889 3272.69616 4016.52 3272.38035 4016.52 3268.86195 4016.54621 3268.71955 4016.6214 3268.5958 4016.73572 3268.50693 4017.26345 3268.233 4017.72192 3267.91318 4018.13604 3267.53709 4018.49867 3267.11113 4018.80385 3266.64229 4019.04657 3266.13828 4019.22285 3265.60736 4019.32978 3265.05826 4019.36563 3264.5 4019.32978 3263.94174 4019.22285 3263.39264 4019.04657 3262.86172 4018.80385 3262.35771 4018.49867 3261.88887 4018.13604 3261.46291 4017.72192 3261.08682 4017.26311 3260.76677 4016.76713 3260.50802 4016.24214 3260.31481 4015.69675 3260.19033 4015.13993 3260.13662 4014.5808 3260.15455 4014.02856 3260.24383 4013.49227 3260.403 4012.98073 3260.62944 4012.50235 3260.91943 4012.06499 3261.26822 4011.67581 3261.67008 4011.34122 3262.1184 4011.06671 3262.60583 4010.85678 3263.12436 4010.71488 3263.66547 4010.64334 3264.22029 4010.64334 3264.77971 4010.71488 3265.33453 4010.85678 3265.87564 4011.06671 3266.39417 4011.34122 3266.8816 4011.67581 3267.32992 4012.06499 3267.73178 4012.50235 3268.08057 4012.98073 3268.37056 4013.24191 3268.48618 4013.36734 3268.57367 4013.45077 3268.70184 4013.48 3268.85194 4013.48 3271.60471 4013.44955 3271.75778 4013.36284 3271.88755 4010.78909 3274.4613 4010.58778 3274.70661 4010.44749 3274.96906 4010.3611 3275.25384 4010.33 3275.56965 4010.33 3279.8051 4010.29955 3279.95817 4010.21284 3280.08794 4010.08307 3280.17465 4009.93 3280.2051 4007.17 3280.2051 4007.01693 3280.17465 4006.88716 3280.08794 4006.80045 3279.95817 4006.77 3279.8051 4006.77 3268.73297 4006.79611 3268.59082 4006.87103 3268.46723 4006.98498 3268.37833 4007.26311 3268.23323 4007.72192 3267.91318 4008.13604 3267.53709 4008.49867 3267.11113 4008.80385 3266.64229 4009.04657 3266.13828 4009.22285 3265.60736 4009.32978 3265.05826 4009.36563 3264.5 4009.32978 3263.94174 4009.22285 3263.39264 4009.04657 3262.86172 4008.80385 3262.35771 4008.49867 3261.88887 4008.13604 3261.46291 4007.72192 3261.08682 4007.26311 3260.76677 4006.76713 3260.50802 4006.24214 3260.31481 4005.69675 3260.19033 4005.13993 3260.13662 4004.5808 3260.15455 4004.02856 3260.24383 4003.49227 3260.403 4002.98073 3260.62944 4002.50235 3260.91943 4002.06499 3261.26822 4001.67581 3261.67008 4001.34122 3262.1184 4001.06671 3262.60583 4000.85678 3263.12436 4000.71488 3263.66547 4000.64334 3264.22029 4000.64334 3264.77971 4000.71488 3265.33453 4000.85678 3265.87564 4001.06671 3266.39417 4001.34122 3266.8816 4001.67581 3267.32992 4002.06499 3267.73178 4002.50235 3268.08057 4002.98073 3268.37056 4003.49191 3268.59685 4003.61734 3268.68434 4003.70077 3268.81251 4003.73 3268.96261 4003.7299 3294.65375 4003.761 3294.96956 4003.84739 3295.25434 4003.98768 3295.51679 4004.18898 3295.76209 4004.96137 3296.53438 4005.2066 3296.73562 4005.46906 3296.87591 4005.75384 3296.9623 4005.9905 3296.9959 4006.07248 3297.03434 4006.30404 3297.1769 4006.52084 3297.25276 4006.76971 3297.2808 4010.26809 3297.2808 4010.51696 3297.25276 4010.73201 3297.17751 4010.92493 3297.05629 4011.08604 3296.89518 4011.20726 3296.70226 4011.28251 3296.48721 4011.31055 3296.23834 4011.31055 3294.69758 4011.34572 3294.53357 4011.44505 3294.3984 4011.85359 3294.17552 4012.0989 3293.97421 4012.61721 3293.4559 4012.74698 3293.36919 4012.90005 3293.33874 4013.05312 3293.36919 4013.18289 3293.4559 4013.7022 3293.97521 4013.94751 3294.17652 4014.20996 3294.31681 4014.49474 3294.4032 4014.65004 3294.4294 4014.73402 3294.4698 4014.96879 3294.61869 4015.18304 3294.69366 4015.43191 3294.7217 4018.2611 3294.7217 4018.41417 3294.75215 4018.54394 3294.83886 4018.63065 3294.96863 4018.6611 3295.1217 4018.6611 3295.8251 4018.63065 3295.97817 4018.54394 3296.10794 4018.41417 3296.19465 4018.2611 3296.2251 4015.43191 3296.2251 4015.18304 3296.25314 4014.96799 3296.32839 4014.77507 3296.44961 4014.61396 3296.61072 4014.49274 3296.80364 4014.41749 3297.01869 4014.38945 3297.26756 4014.38945 3298.79744 4014.41749 3299.04631 4014.49274 3299.26136 4014.61396 3299.45428 4014.77507 3299.61539 4014.96799 3299.73661 4015.18304 3299.81186 4015.43191 3299.8399 4018.93029 3299.8399 4019.17916 3299.81186 4019.39421 3299.73661 4019.58713 3299.61539 4019.72844 3299.49104 4019.87184 3299.43501 4020.13429 3299.29472 4020.3796 3299.09341 4021.24201 3298.231 4021.44332 3297.98569 4021.58361 3297.72324 4021.63171 3297.56469 4021.71375 3297.41706 4021.8494 3297.31645 4022.01448 3297.2808 4025.26809 3297.2808 4025.38521 3297.2676 4025.55147 3297.28398 4025.69654 3297.36683 4025.79511 3297.50171 4025.83 3297.66509 4025.83 3299.76274 4025.79577 3299.92466 4025.69892 3300.05885 4025.55604 3300.14237 4025.39159 3300.16089 4025.13993 3300.13662 4024.5808 3300.15455 4024.02856 3300.24383 4023.49227 3300.403 4022.98073 3300.62944 4022.50235 3300.91943 4022.06499 3301.26822 4021.67581 3301.67008 4021.34122 3302.1184 4021.06671 3302.60583 4020.85678 3303.12436 4020.71488 3303.66547 4020.64334 3304.22029 4020.64334 3304.77971 4020.71488 3305.33453 4020.85678 3305.87564 4021.06671 3306.39417 4021.34122 3306.8816 4021.67581 3307.32992 4022.06499 3307.73178 4022.50235 3308.08057 4022.98073 3308.37056 4023.49227 3308.597 4024.02856 3308.75617 4024.5808 3308.84545 4025.13993 3308.86338 4025.69675 3308.80967 4026.24214 3308.68519 4026.76713 3308.49198 4027.26311 3308.23323 4027.72192 3307.91318 4028.13604 3307.53709 4028.49867 3307.11113 4028.80385 3306.64229 4029.04657 3306.13828 4029.22285 3305.60736 4029.32978 3305.05826 4029.36563 3304.5 4029.32978 3303.94174 4029.22285 3303.39264 4029.04657 3302.86172 4028.88886 3302.53424 4028.85538 3302.43045 4028.85118 3302.32148 4028.87 3302.13035 4028.87 3299.65871 4028.90643 3299.49192 4029.00909 3299.35552 4029.15927 3299.27434 4029.32962 3299.26317 4029.48911 3299.32405 4029.77507 3299.61539 4029.96799 3299.73661 4030.18304 3299.81186 4030.43191 3299.8399 4030.57164 3299.8399 4030.72392 3299.87002 4030.85326 3299.95583 4030.94019 3300.08443 4030.97163 3300.23643 4030.94283 3300.38896 4030.73684 3300.71209 4030.66159 3300.92714 4030.63355 3301.17601 4030.63355 3307.82399 4030.66159 3308.07286 4030.73684 3308.28791 4030.85806 3308.48083 4031.01917 3308.64194 4031.21209 3308.76316 4031.42714 3308.83841 Z " stroke-width="0" layerid="1" attachedcopperid="gge3577" c_shapetype="line" id="gge3577_3" class=""></path><polyline points="4023.5199 3281.9133 4026.09 3281.9133 4027.35 3283.1734 4027.35 3294.2734 4026.15 3295.4734 4023.5199 3295.4734" stroke-width="1"  stroke-linecap="round" fill="none" layerid="1" net="CTCIN" id="gge3420" locked="0" /><polyline points="4028.41 3270.65 4028.41 3268.69 4032.6 3264.5 4035 3264.5" stroke-width="1"  stroke-linecap="round" fill="none" layerid="1" net="CTCOUT" id="gge3480" locked="0" /><polyline points="4035 3304.5 4035 3299 4034.03 3298.03 4032.18 3298.03" stroke-width="1"  stroke-linecap="round" fill="none" layerid="1" net="OUT1" id="gge3456" locked="0" /><polyline points="4025 3304.5 4027.35 3302.15 4027.35 3294.27" stroke-width="1"  stroke-linecap="round" fill="none" layerid="1" net="CTCIN" id="gge3459" locked="0" /><polyline points="4023.291 3270.6494 4023.291 3266.209 4025 3264.5" stroke-width="1"  stroke-linecap="round" fill="none" layerid="1" net="+5V" id="gge3435" locked="0" /><polyline points="4032.1811 3281.9143 4034.391 3281.9143 4035.15 3282.6734 4035.15 3292.1734 4034.4091 3292.9143 4032.1811 3292.9143" stroke-width="1"  stroke-linecap="round" fill="none" layerid="1" net="+5V" id="gge3432" locked="0" /><polyline points="4017.1801 3281.9133 4017.1801 3279.4434 4023.2899 3273.3335 4023.2899 3270.6533" stroke-width="1"  stroke-linecap="round" fill="none" layerid="1" net="+5V" id="gge3429" locked="0" /><polyline points="4017.1811 3287.0325 4017.1811 3286.1423 4020.1811 3283.1423 4020.1811 3280.4075 4023.2909 3277.2974" stroke-width="1"  stroke-linecap="round" fill="none" layerid="1" net="AND1_4" id="gge3426" locked="0" /><polyline points="4032.1811 3287.0325 4030.109 3287.0325 4029.2499 3286.1734 4029.2499 3282.6734 4025.85 3279.2734 4025.85 3277.2974" stroke-width="1"  stroke-linecap="round" fill="none" layerid="1" net="AND2_4" id="gge3423" locked="0" /><polyline points="4023.5189 3292.9143 4020.1801 3292.9143" stroke-width="1"  stroke-linecap="round" fill="none" layerid="1" net="AND2_2" id="gge3417" locked="0" /><polyline points="4017.1811 3292.9143 4014.7909 3292.9143 4013.85 3291.9734 4013.85 3282.8733 4014.809 3281.9143 4017.1811 3281.9143" stroke-width="1"  stroke-linecap="round" fill="none" layerid="1" net="+5V" id="gge3414" locked="0" /><polyline points="4008.5199 3292.9133 4011.0102 3292.9133 4011.85 3292.0735 4011.85 3282.7734 4010.9899 3281.9133 4008.5199 3281.9133" stroke-width="1"  stroke-linecap="round" fill="none" layerid="1" net="012" id="gge3411" locked="0" /><polyline points="4017.1811 3298.0325 4019.2909 3298.0325 4020.1811 3297.1423 4020.1811 3285.8423 4021.55 3284.4734 4023.5189 3284.4734" stroke-width="1"  stroke-linecap="round" fill="none" layerid="1" net="AND2_2" id="gge3408" locked="0" /><polyline points="4008.5189 3284.4734 4006.15 3284.4734 4005.2499 3285.3735 4005.2499 3294.6734 4006.05 3295.4734 4008.5189 3295.4734" stroke-width="1"  stroke-linecap="round" fill="none" layerid="1" net="011" id="gge3405" locked="0" /><polyline points="4023.29 3270.65 4026.29 3273.65 4029.29 3273.65 4032.18 3276.54 4032.18 3281.91" stroke-width="1"  stroke-linecap="round" fill="none" layerid="1" net="+5V" id="gge3511" locked="0" /><polyline points="4008.52 3298.03 4005 3301.55 4005 3304.5" stroke-width="1"  stroke-linecap="round" fill="none" layerid="1" net="GND" id="gge3514" locked="0" /><polyline points="4005.25 3286.09 4005.25 3273.45 4005.25 3264.75 4005 3264.5" stroke-width="1"  stroke-linecap="round" fill="none" layerid="1" net="011" id="gge3520" locked="0" /><polyline points="4011.85 3282.77 4011.85 3275.55 4015 3272.4 4015 3264.5" stroke-width="1"  stroke-linecap="round" fill="none" layerid="1" net="012" id="gge3523" locked="0" /><g c_partid="part_pad" c_etype="pinpart" c_origin="4008.519,3281.914" layerid="1" number="1" net="012" plated ="Y"  id="gge75" locked="0" c_rotation="270" c_width="1.378" c_height="3.3465" title="012" c_shape="RECT" pasteexpansion="0" solderexpansion="0.1969"><polygon  c_etype="pad_shell" points="4010.1926 3281.2251 4010.1926 3282.6031 4006.8462 3282.6031 4006.8462 3281.2251" layerid="1" stroke-width="0" /><circle c_etype="pad_hole" cx="4008.5194" cy="3281.9141" r="0" layerid="1" stroke-width="0"/></g><g c_partid="part_pad" c_etype="pinpart" c_origin="4008.519,3284.473" layerid="1" number="2" net="011" plated ="Y"  id="gge90" locked="0" c_rotation="270" c_width="1.378" c_height="3.3465" title="011" c_shape="RECT" pasteexpansion="0" solderexpansion="0.1969"><polygon  c_etype="pad_shell" points="4010.1926 3283.7842 4010.1926 3285.1622 4006.8462 3285.1622 4006.8462 3283.7842" layerid="1" stroke-width="0" /><circle c_etype="pad_hole" cx="4008.5194" cy="3284.4732" r="0" layerid="1" stroke-width="0"/></g><g c_partid="part_pad" c_etype="pinpart" c_origin="4008.519,3287.032" layerid="1" number="3" net="GND" plated ="Y"  id="gge105" locked="0" c_rotation="270" c_width="1.378" c_height="3.3465" title="GND" c_shape="RECT" pasteexpansion="0" solderexpansion="0.1969"><polygon  c_etype="pad_shell" points="4010.1926 3286.3433 4010.1926 3287.7213 4006.8462 3287.7213 4006.8462 3286.3433" layerid="1" stroke-width="0" /><circle c_etype="pad_hole" cx="4008.5194" cy="3287.0323" r="0" layerid="1" stroke-width="0"/></g><g c_partid="part_pad" c_etype="pinpart" c_origin="4017.181,3287.032" layerid="1" number="4" net="AND1_4" plated ="Y"  id="gge120" locked="0" c_rotation="270" c_width="1.378" c_height="3.3465" title="AND1_4" c_shape="RECT" pasteexpansion="0" solderexpansion="0.1969"><polygon  c_etype="pad_shell" points="4018.854 3286.3433 4018.854 3287.7213 4015.5076 3287.7213 4015.5076 3286.3433" layerid="1" stroke-width="0" /><circle c_etype="pad_hole" cx="4017.1808" cy="3287.0323" r="0" layerid="1" stroke-width="0"/></g><g c_partid="part_pad" c_etype="pinpart" c_origin="4017.181,3281.914" layerid="1" number="5" net="+5V" plated ="Y"  id="gge135" locked="0" c_rotation="270" c_width="1.378" c_height="3.3465" title="+5V" c_shape="RECT" pasteexpansion="0" solderexpansion="0.1969"><polygon  c_etype="pad_shell" points="4018.854 3281.2251 4018.854 3282.6031 4015.5076 3282.6031 4015.5076 3281.2251" layerid="1" stroke-width="0" /><circle c_etype="pad_hole" cx="4017.1808" cy="3281.9141" r="0" layerid="1" stroke-width="0"/></g><g c_partid="part_pad" c_etype="pinpart" c_origin="4032.181,3292.914" layerid="1" number="5" net="+5V" plated ="Y"  id="gge912" locked="0" c_rotation="270" c_width="1.5748" c_height="3.5433" title="+5V" c_shape="RECT" pasteexpansion="0" solderexpansion="0.2"><polygon  c_etype="pad_shell" points="4033.9524 3292.1268 4033.9524 3293.7016 4030.4091 3293.7016 4030.4091 3292.1268" layerid="1" stroke-width="0" /><circle c_etype="pad_hole" cx="4032.1811" cy="3292.9143" r="0" layerid="1" stroke-width="0"/></g><g c_partid="part_pad" c_etype="pinpart" c_origin="4032.181,3298.032" layerid="1" number="4" net="OUT1" plated ="Y"  id="gge927" locked="0" c_rotation="270" c_width="1.5748" c_height="3.5433" title="OUT1" c_shape="RECT" pasteexpansion="0" solderexpansion="0.2"><polygon  c_etype="pad_shell" points="4033.9524 3297.2448 4033.9524 3298.8196 4030.4091 3298.8196 4030.4091 3297.2448" layerid="1" stroke-width="0" /><circle c_etype="pad_hole" cx="4032.1811" cy="3298.0325" r="0" layerid="1" stroke-width="0"/></g><g c_partid="part_pad" c_etype="pinpart" c_origin="4023.519,3298.032" layerid="1" number="3" net="GND" plated ="Y"  id="gge942" locked="0" c_rotation="270" c_width="1.5748" c_height="3.5433" title="GND" c_shape="RECT" pasteexpansion="0" solderexpansion="0.2"><polygon  c_etype="pad_shell" points="4025.2909 3297.2448 4025.2909 3298.8196 4021.7476 3298.8196 4021.7476 3297.2448" layerid="1" stroke-width="0" /><circle c_etype="pad_hole" cx="4023.5189" cy="3298.0325" r="0" layerid="1" stroke-width="0"/></g><g c_partid="part_pad" c_etype="pinpart" c_origin="4023.519,3295.473" layerid="1" number="2" net="CTCIN" plated ="Y"  id="gge957" locked="0" c_rotation="270" c_width="1.5748" c_height="3.5433" title="CTCIN" c_shape="RECT" pasteexpansion="0" solderexpansion="0.2"><polygon  c_etype="pad_shell" points="4025.2909 3294.6858 4025.2909 3296.2606 4021.7476 3296.2606 4021.7476 3294.6858" layerid="1" stroke-width="0" /><circle c_etype="pad_hole" cx="4023.5189" cy="3295.4734" r="0" layerid="1" stroke-width="0"/></g><g c_partid="part_pad" c_etype="pinpart" c_origin="4023.519,3292.914" layerid="1" number="1" net="AND2_2" plated ="Y"  id="gge972" locked="0" c_rotation="270" c_width="1.5748" c_height="3.5433" title="AND2_2" c_shape="RECT" pasteexpansion="0" solderexpansion="0.2"><polygon  c_etype="pad_shell" points="4025.2909 3292.1268 4025.2909 3293.7016 4021.7476 3293.7016 4021.7476 3292.1268" layerid="1" stroke-width="0" /><circle c_etype="pad_hole" cx="4023.5189" cy="3292.9143" r="0" layerid="1" stroke-width="0"/></g><g c_partid="part_pad" c_etype="pinpart" c_origin="4023.519,3281.914" layerid="1" number="1" net="CTCIN" plated ="Y"  id="gge222" locked="0" c_rotation="270" c_width="1.378" c_height="3.3465" title="CTCIN" c_shape="RECT" pasteexpansion="0" solderexpansion="0.1969"><polygon  c_etype="pad_shell" points="4025.1926 3281.2251 4025.1926 3282.6031 4021.8462 3282.6031 4021.8462 3281.2251" layerid="1" stroke-width="0" /><circle c_etype="pad_hole" cx="4023.5194" cy="3281.9141" r="0" layerid="1" stroke-width="0"/></g><g c_partid="part_pad" c_etype="pinpart" c_origin="4023.519,3284.473" layerid="1" number="2" net="AND2_2" plated ="Y"  id="gge237" locked="0" c_rotation="270" c_width="1.378" c_height="3.3465" title="AND2_2" c_shape="RECT" pasteexpansion="0" solderexpansion="0.1969"><polygon  c_etype="pad_shell" points="4025.1926 3283.7842 4025.1926 3285.1622 4021.8462 3285.1622 4021.8462 3283.7842" layerid="1" stroke-width="0" /><circle c_etype="pad_hole" cx="4023.5194" cy="3284.4732" r="0" layerid="1" stroke-width="0"/></g><g c_partid="part_pad" c_etype="pinpart" c_origin="4023.519,3287.032" layerid="1" number="3" net="GND" plated ="Y"  id="gge252" locked="0" c_rotation="270" c_width="1.378" c_height="3.3465" title="GND" c_shape="RECT" pasteexpansion="0" solderexpansion="0.1969"><polygon  c_etype="pad_shell" points="4025.1926 3286.3433 4025.1926 3287.7213 4021.8462 3287.7213 4021.8462 3286.3433" layerid="1" stroke-width="0" /><circle c_etype="pad_hole" cx="4023.5194" cy="3287.0323" r="0" layerid="1" stroke-width="0"/></g><g c_partid="part_pad" c_etype="pinpart" c_origin="4032.181,3287.032" layerid="1" number="4" net="AND2_4" plated ="Y"  id="gge267" locked="0" c_rotation="270" c_width="1.378" c_height="3.3465" title="AND2_4" c_shape="RECT" pasteexpansion="0" solderexpansion="0.1969"><polygon  c_etype="pad_shell" points="4033.854 3286.3433 4033.854 3287.7213 4030.5076 3287.7213 4030.5076 3286.3433" layerid="1" stroke-width="0" /><circle c_etype="pad_hole" cx="4032.1808" cy="3287.0323" r="0" layerid="1" stroke-width="0"/></g><g c_partid="part_pad" c_etype="pinpart" c_origin="4032.181,3281.914" layerid="1" number="5" net="+5V" plated ="Y"  id="gge282" locked="0" c_rotation="270" c_width="1.378" c_height="3.3465" title="+5V" c_shape="RECT" pasteexpansion="0" solderexpansion="0.1969"><polygon  c_etype="pad_shell" points="4033.854 3281.2251 4033.854 3282.6031 4030.5076 3282.6031 4030.5076 3281.2251" layerid="1" stroke-width="0" /><circle c_etype="pad_hole" cx="4032.1808" cy="3281.9141" r="0" layerid="1" stroke-width="0"/></g><g c_partid="part_pad" c_etype="pinpart" c_origin="4023.291,3277.297" layerid="1" number="1" net="AND1_4" plated ="Y"  id="gge588" locked="0" c_rotation="270" c_width="3.3012" c_height="1.2402" title="AND1_4" c_shape="RECT" pasteexpansion="0.0000" solderexpansion="0.2000"><polygon  c_etype="pad_shell" points="4022.6709 3278.9478 4023.911 3278.9478 4023.911 3275.6466 4022.6709 3275.6466" layerid="1" stroke-width="0" /><circle c_etype="pad_hole" cx="4023.2909" cy="3277.2972" r="0" layerid="1" stroke-width="0"/></g><g c_partid="part_pad" c_etype="pinpart" c_origin="4025.85,3277.297" layerid="1" number="2" net="AND2_4" plated ="Y"  id="gge603" locked="0" c_rotation="270" c_width="3.3012" c_height="1.2402" title="AND2_4" c_shape="RECT" pasteexpansion="0.0000" solderexpansion="0.2000"><polygon  c_etype="pad_shell" points="4025.2299 3278.9478 4026.4701 3278.9478 4026.4701 3275.6466 4025.2299 3275.6466" layerid="1" stroke-width="0" /><circle c_etype="pad_hole" cx="4025.85" cy="3277.2972" r="0" layerid="1" stroke-width="0"/></g><g c_partid="part_pad" c_etype="pinpart" c_origin="4028.409,3277.297" layerid="1" number="3" net="GND" plated ="Y"  id="gge618" locked="0" c_rotation="270" c_width="3.3012" c_height="1.2402" title="GND" c_shape="RECT" pasteexpansion="0.0000" solderexpansion="0.2000"><polygon  c_etype="pad_shell" points="4027.789 3278.9478 4029.0291 3278.9478 4029.0291 3275.6466 4027.789 3275.6466" layerid="1" stroke-width="0" /><circle c_etype="pad_hole" cx="4028.4091" cy="3277.2972" r="0" layerid="1" stroke-width="0"/></g><g c_partid="part_pad" c_etype="pinpart" c_origin="4028.409,3270.65" layerid="1" number="4" net="CTCOUT" plated ="Y"  id="gge633" locked="0" c_rotation="270" c_width="3.3012" c_height="1.2402" title="CTCOUT" c_shape="RECT" pasteexpansion="0.0000" solderexpansion="0.2000"><polygon  c_etype="pad_shell" points="4027.789 3272.3002 4029.0291 3272.3002 4029.0291 3268.999 4027.789 3268.999" layerid="1" stroke-width="0" /><circle c_etype="pad_hole" cx="4028.4091" cy="3270.6496" r="0" layerid="1" stroke-width="0"/></g><g c_partid="part_pad" c_etype="pinpart" c_origin="4023.291,3270.65" layerid="1" number="5" net="+5V" plated ="Y"  id="gge648" locked="0" c_rotation="270" c_width="3.3012" c_height="1.2402" title="+5V" c_shape="RECT" pasteexpansion="0.0000" solderexpansion="0.2000"><polygon  c_etype="pad_shell" points="4022.6709 3272.3002 4023.911 3272.3002 4023.911 3268.999 4022.6709 3268.999" layerid="1" stroke-width="0" /><circle c_etype="pad_hole" cx="4023.2909" cy="3270.6496" r="0" layerid="1" stroke-width="0"/></g><g c_partid="part_pad" c_etype="pinpart" c_origin="4017.181,3292.914" layerid="1" number="5" net="+5V" plated ="Y"  id="gge750" locked="0" c_rotation="270" c_width="1.5748" c_height="3.5433" title="+5V" c_shape="RECT" pasteexpansion="0" solderexpansion="0.2"><polygon  c_etype="pad_shell" points="4018.9524 3292.1268 4018.9524 3293.7016 4015.4091 3293.7016 4015.4091 3292.1268" layerid="1" stroke-width="0" /><circle c_etype="pad_hole" cx="4017.1811" cy="3292.9143" r="0" layerid="1" stroke-width="0"/></g><g c_partid="part_pad" c_etype="pinpart" c_origin="4017.181,3298.032" layerid="1" number="4" net="AND2_2" plated ="Y"  id="gge765" locked="0" c_rotation="270" c_width="1.5748" c_height="3.5433" title="AND2_2" c_shape="RECT" pasteexpansion="0" solderexpansion="0.2"><polygon  c_etype="pad_shell" points="4018.9524 3297.2448 4018.9524 3298.8196 4015.4091 3298.8196 4015.4091 3297.2448" layerid="1" stroke-width="0" /><circle c_etype="pad_hole" cx="4017.1811" cy="3298.0325" r="0" layerid="1" stroke-width="0"/></g><g c_partid="part_pad" c_etype="pinpart" c_origin="4008.519,3298.032" layerid="1" number="3" net="GND" plated ="Y"  id="gge780" locked="0" c_rotation="270" c_width="1.5748" c_height="3.5433" title="GND" c_shape="RECT" pasteexpansion="0" solderexpansion="0.2"><polygon  c_etype="pad_shell" points="4010.2909 3297.2448 4010.2909 3298.8196 4006.7476 3298.8196 4006.7476 3297.2448" layerid="1" stroke-width="0" /><circle c_etype="pad_hole" cx="4008.5189" cy="3298.0325" r="0" layerid="1" stroke-width="0"/></g><g c_partid="part_pad" c_etype="pinpart" c_origin="4008.519,3295.473" layerid="1" number="2" net="011" plated ="Y"  id="gge795" locked="0" c_rotation="270" c_width="1.5748" c_height="3.5433" title="011" c_shape="RECT" pasteexpansion="0" solderexpansion="0.2"><polygon  c_etype="pad_shell" points="4010.2909 3294.6858 4010.2909 3296.2606 4006.7476 3296.2606 4006.7476 3294.6858" layerid="1" stroke-width="0" /><circle c_etype="pad_hole" cx="4008.5189" cy="3295.4734" r="0" layerid="1" stroke-width="0"/></g><g c_partid="part_pad" c_etype="pinpart" c_origin="4008.519,3292.914" layerid="1" number="1" net="012" plated ="Y"  id="gge810" locked="0" c_rotation="270" c_width="1.5748" c_height="3.5433" title="012" c_shape="RECT" pasteexpansion="0" solderexpansion="0.2"><polygon  c_etype="pad_shell" points="4010.2909 3292.1268 4010.2909 3293.7016 4006.7476 3293.7016 4006.7476 3292.1268" layerid="1" stroke-width="0" /><circle c_etype="pad_hole" cx="4008.5189" cy="3292.9143" r="0" layerid="1" stroke-width="0"/></g><g c_partid="part_pad" c_etype="pinpart" c_origin="4035,3264.5" layerid="11" number="1" net="CTCOUT" plated ="Y"  id="gge345" locked="0" c_rotation="0" c_width="6.6929" c_height="6.6929" title="CTCOUT" c_shape="RECT" pasteexpansion="0" solderexpansion="0.2"><polygon  c_etype="pad_shell" points="4038.3465 3261.1535 4031.6535 3261.1535 4031.6535 3267.8465 4038.3465 3267.8465" layerid="11" stroke-width="0" /><circle c_etype="pad_hole" cx="4035" cy="3264.5" r="2.1654" layerid="11" stroke-width="0"/></g><g c_partid="part_pad" c_etype="pinpart" c_origin="4025,3264.5" layerid="11" number="2" net="+5V" plated ="Y"  id="gge360" locked="0" c_rotation="0" c_width="6.6929" c_height="6.6929" title="+5V" c_shape="ELLIPSE" pasteexpansion="0" solderexpansion="0.2"><ellipse c_etype="pad_shell" cx="4025" cy="3264.5" rx="3.34645" ry="3.34645" layerid="11" stroke-width="0"/><circle c_etype="pad_hole" cx="4025" cy="3264.5" r="2.1654" layerid="11" stroke-width="0"/></g><g c_partid="part_pad" c_etype="pinpart" c_origin="4015,3264.5" layerid="11" number="3" net="012" plated ="Y"  id="gge375" locked="0" c_rotation="0" c_width="6.6929" c_height="6.6929" title="012" c_shape="ELLIPSE" pasteexpansion="0" solderexpansion="0.2"><ellipse c_etype="pad_shell" cx="4015" cy="3264.5" rx="3.34645" ry="3.34645" layerid="11" stroke-width="0"/><circle c_etype="pad_hole" cx="4015" cy="3264.5" r="2.1654" layerid="11" stroke-width="0"/></g><g c_partid="part_pad" c_etype="pinpart" c_origin="4005,3264.5" layerid="11" number="4" net="011" plated ="Y"  id="gge390" locked="0" c_rotation="0" c_width="6.6929" c_height="6.6929" title="011" c_shape="ELLIPSE" pasteexpansion="0" solderexpansion="0.2"><ellipse c_etype="pad_shell" cx="4005" cy="3264.5" rx="3.34645" ry="3.34645" layerid="11" stroke-width="0"/><circle c_etype="pad_hole" cx="4005" cy="3264.5" r="2.1654" layerid="11" stroke-width="0"/></g><g c_partid="part_pad" c_etype="pinpart" c_origin="4035,3304.5" layerid="11" number="1" net="OUT1" plated ="Y"  id="gge453" locked="0" c_rotation="0" c_width="6.6929" c_height="6.6929" title="OUT1" c_shape="RECT" pasteexpansion="0" solderexpansion="0.2"><polygon  c_etype="pad_shell" points="4038.3465 3301.1535 4031.6535 3301.1535 4031.6535 3307.8465 4038.3465 3307.8465" layerid="11" stroke-width="0" /><circle c_etype="pad_hole" cx="4035" cy="3304.5" r="2.1654" layerid="11" stroke-width="0"/></g><g c_partid="part_pad" c_etype="pinpart" c_origin="4025,3304.5" layerid="11" number="2" net="CTCIN" plated ="Y"  id="gge468" locked="0" c_rotation="0" c_width="6.6929" c_height="6.6929" title="CTCIN" c_shape="ELLIPSE" pasteexpansion="0" solderexpansion="0.2"><ellipse c_etype="pad_shell" cx="4025" cy="3304.5" rx="3.34645" ry="3.34645" layerid="11" stroke-width="0"/><circle c_etype="pad_hole" cx="4025" cy="3304.5" r="2.1654" layerid="11" stroke-width="0"/></g><g c_partid="part_pad" c_etype="pinpart" c_origin="4015,3304.5" layerid="11" number="3" net="GND" plated ="Y"  id="gge483" locked="0" c_rotation="0" c_width="6.6929" c_height="6.6929" title="GND" c_shape="ELLIPSE" pasteexpansion="0" solderexpansion="0.2"><ellipse c_etype="pad_shell" cx="4015" cy="3304.5" rx="3.34645" ry="3.34645" layerid="11" stroke-width="0"/><circle c_etype="pad_hole" cx="4015" cy="3304.5" r="2.1654" layerid="11" stroke-width="0"/></g><g c_partid="part_pad" c_etype="pinpart" c_origin="4005,3304.5" layerid="11" number="4" net="GND" plated ="Y"  id="gge498" locked="0" c_rotation="0" c_width="6.6929" c_height="6.6929" title="GND" c_shape="ELLIPSE" pasteexpansion="0" solderexpansion="0.2"><ellipse c_etype="pad_shell" cx="4005" cy="3304.5" rx="3.34645" ry="3.34645" layerid="11" stroke-width="0"/><circle c_etype="pad_hole" cx="4005" cy="3304.5" r="2.1654" layerid="11" stroke-width="0"/></g><g c_partid="part_via" c_etype="pinpart" c_shapetype="group" net="GND" c_origin="4008.519,3287.032" layerid="11" id="gge3535" locked="0" solderexpansion=""><circle cx="4008.519" cy="3287.032" r="1.2205" stroke-width="0" c_etype="pad_shell"/><circle cx="4008.519" cy="3287.032" r="0.6102"  stroke-width="0" c_etype="pad_hole"/></g><g c_partid="part_via" c_etype="pinpart" c_shapetype="group" net="GND" c_origin="4023.519,3287.032" layerid="11" id="gge3547" locked="0" solderexpansion=""><circle cx="4023.519" cy="3287.032" r="1.2205" stroke-width="0" c_etype="pad_shell"/><circle cx="4023.519" cy="3287.032" r="0.6102"  stroke-width="0" c_etype="pad_hole"/></g><g c_partid="part_via" c_etype="pinpart" c_shapetype="group" net="GND" c_origin="4023.519,3298.032" layerid="11" id="gge3559" locked="0" solderexpansion=""><circle cx="4023.519" cy="3298.032" r="1.2205" stroke-width="0" c_etype="pad_shell"/><circle cx="4023.519" cy="3298.032" r="0.6102"  stroke-width="0" c_etype="pad_hole"/></g><g c_partid="part_via" c_etype="pinpart" c_shapetype="group" net="GND" c_origin="4028.409,3277.297" layerid="11" id="gge3634" locked="0" solderexpansion=""><circle cx="4028.409" cy="3277.297" r="1.2205" stroke-width="0" c_etype="pad_shell"/><circle cx="4028.409" cy="3277.297" r="0.6102"  stroke-width="0" c_etype="pad_hole"/></g><polyline points="4014.8186 3280.5361 4010.9209 3280.5361 4010.9209 3288.4101 4014.7793 3288.4101 4014.8186 3288.3708 4014.8186 3280.5361" stroke-width="0.3937"  stroke-linecap="round" fill="none" layerid="3" net="" id="gge30" locked="0" /><polyline points="4030.6058 3294.5209 4030.6058 3296.4259" stroke-width="1"  stroke-linecap="round" fill="none" layerid="3" net="" id="gge852" locked="0" /><polyline points="4025.0941 3299.6393 4025.0941 3300.0011" stroke-width="1"  stroke-linecap="round" fill="none" layerid="3" net="" id="gge855" locked="0" /><polyline points="4025.0941 3290.9459 4025.0941 3291.3075" stroke-width="1"  stroke-linecap="round" fill="none" layerid="3" net="" id="gge858" locked="0" /><polyline points="4030.6058 3299.639 4030.6058 3300.0011" stroke-width="1"  stroke-linecap="round" fill="none" layerid="3" net="" id="gge861" locked="0" /><polyline points="4030.6058 3290.9459 4030.6058 3291.3077" stroke-width="1"  stroke-linecap="round" fill="none" layerid="3" net="" id="gge864" locked="0" /><polyline points="4030.6058 3300.0011 4025.0941 3300.0011" stroke-width="1"  stroke-linecap="round" fill="none" layerid="3" net="" id="gge867" locked="0" /><polyline points="4030.6058 3290.9459 4025.0941 3290.9459" stroke-width="1"  stroke-linecap="round" fill="none" layerid="3" net="" id="gge870" locked="0" /><polyline points="4029.8186 3280.5361 4025.9209 3280.5361 4025.9209 3288.4101 4029.7793 3288.4101 4029.8186 3288.3708 4029.8186 3280.5361" stroke-width="0.3937"  stroke-linecap="round" fill="none" layerid="3" net="" id="gge177" locked="0" /><polyline points="4030.1854 3276.734 4030.1854 3271.2128" stroke-width="0.6"  stroke-linecap="round" fill="none" layerid="3" net="" id="gge570" locked="0" /><polyline points="4021.5146 3276.734 4021.5146 3271.2128" stroke-width="0.6"  stroke-linecap="round" fill="none" layerid="3" net="" id="gge573" locked="0" /><polyline points="4026.889 3271.2128 4024.811 3271.2128" stroke-width="0.6"  stroke-linecap="round" fill="none" layerid="3" net="" id="gge576" locked="0" /><polyline points="4015.6058 3294.5209 4015.6058 3296.4259" stroke-width="1"  stroke-linecap="round" fill="none" layerid="3" net="" id="gge690" locked="0" /><polyline points="4010.0941 3299.6393 4010.0941 3300.0011" stroke-width="1"  stroke-linecap="round" fill="none" layerid="3" net="" id="gge693" locked="0" /><polyline points="4010.0941 3290.9459 4010.0941 3291.3075" stroke-width="1"  stroke-linecap="round" fill="none" layerid="3" net="" id="gge696" locked="0" /><polyline points="4015.6058 3299.639 4015.6058 3300.0011" stroke-width="1"  stroke-linecap="round" fill="none" layerid="3" net="" id="gge699" locked="0" /><polyline points="4015.6058 3290.9459 4015.6058 3291.3077" stroke-width="1"  stroke-linecap="round" fill="none" layerid="3" net="" id="gge702" locked="0" /><polyline points="4015.6058 3300.0011 4010.0941 3300.0011" stroke-width="1"  stroke-linecap="round" fill="none" layerid="3" net="" id="gge705" locked="0" /><polyline points="4015.6058 3290.9459 4010.0941 3290.9459" stroke-width="1"  stroke-linecap="round" fill="none" layerid="3" net="" id="gge708" locked="0" /><g c_partid="part_pcbtext" c_etype="" c_origin="4013.35,3296.473" c_rotation="180" c_mirror="0" id="gge9" locked="0" layerid="3" c_shapetype="group" display="none"><path c_fontsize="4.5" c_fontfamily="" c_text="SN74LVC1G08DCK3" d="M 4010.49 3300.4034 L 4010.9 3300.8134 L 4011.51 3301.0134 L 4012.33 3301.0134 L 4012.94 3300.8134 L 4013.35 3300.4034 L 4013.35 3299.9934 L 4013.15 3299.5834 L 4012.94 3299.3734 L 4012.53 3299.1734 L 4011.3 3298.7634 L 4010.9 3298.5634 L 4010.69 3298.3534 L 4010.49 3297.9434 L 4010.49 3297.3334 L 4010.9 3296.9234 L 4011.51 3296.7234 L 4012.33 3296.7234 L 4012.94 3296.9234 L 4013.35 3297.3334 M 4009.14 3301.0134 L 4009.14 3296.7234 M 4009.14 3301.0134 L 4006.27 3296.7234 M 4006.27 3301.0134 L 4006.27 3296.7234 M 4002.06 3301.0134 L 4004.1 3296.7234 M 4004.92 3301.0134 L 4002.06 3301.0134 M 3998.66 3301.0134 L 4000.71 3298.1534 L 3997.64 3298.1534 M 3998.66 3301.0134 L 3998.66 3296.7234 M 3996.29 3301.0134 L 3996.29 3296.7234 M 3996.29 3296.7234 L 3993.84 3296.7234 M 3992.49 3301.0134 L 3990.85 3296.7234 M 3989.21 3301.0134 L 3990.85 3296.7234 M 3984.8 3299.9934 L 3985 3300.4034 L 3985.41 3300.8134 L 3985.82 3301.0134 L 3986.64 3301.0134 L 3987.05 3300.8134 L 3987.45 3300.4034 L 3987.66 3299.9934 L 3987.86 3299.3734 L 3987.86 3298.3534 L 3987.66 3297.7434 L 3987.45 3297.3334 L 3987.05 3296.9234 L 3986.64 3296.7234 L 3985.82 3296.7234 L 3985.41 3296.9234 L 3985 3297.3334 L 3984.8 3297.7434 M 3983.45 3300.1934 L 3983.04 3300.4034 L 3982.42 3301.0134 L 3982.42 3296.7234 M 3978 3299.9934 L 3978.21 3300.4034 L 3978.62 3300.8134 L 3979.03 3301.0134 L 3979.85 3301.0134 L 3980.25 3300.8134 L 3980.66 3300.4034 L 3980.87 3299.9934 L 3981.07 3299.3734 L 3981.07 3298.3534 L 3980.87 3297.7434 L 3980.66 3297.3334 L 3980.25 3296.9234 L 3979.85 3296.7234 L 3979.03 3296.7234 L 3978.62 3296.9234 L 3978.21 3297.3334 L 3978 3297.7434 L 3978 3298.3534 M 3979.03 3298.3534 L 3978 3298.3534 M 3975.43 3301.0134 L 3976.04 3300.8134 L 3976.45 3300.1934 L 3976.65 3299.1734 L 3976.65 3298.5634 L 3976.45 3297.5334 L 3976.04 3296.9234 L 3975.43 3296.7234 L 3975.02 3296.7234 L 3974.4 3296.9234 L 3974 3297.5334 L 3973.79 3298.5634 L 3973.79 3299.1734 L 3974 3300.1934 L 3974.4 3300.8134 L 3975.02 3301.0134 L 3975.43 3301.0134 M 3971.42 3301.0134 L 3972.03 3300.8134 L 3972.24 3300.4034 L 3972.24 3299.9934 L 3972.03 3299.5834 L 3971.62 3299.3734 L 3970.8 3299.1734 L 3970.19 3298.9734 L 3969.78 3298.5634 L 3969.58 3298.1534 L 3969.58 3297.5334 L 3969.78 3297.1234 L 3969.99 3296.9234 L 3970.6 3296.7234 L 3971.42 3296.7234 L 3972.03 3296.9234 L 3972.24 3297.1234 L 3972.44 3297.5334 L 3972.44 3298.1534 L 3972.24 3298.5634 L 3971.83 3298.9734 L 3971.21 3299.1734 L 3970.4 3299.3734 L 3969.99 3299.5834 L 3969.78 3299.9934 L 3969.78 3300.4034 L 3969.99 3300.8134 L 3970.6 3301.0134 L 3971.42 3301.0134 M 3968.23 3301.0134 L 3968.23 3296.7234 M 3968.23 3301.0134 L 3966.8 3301.0134 L 3966.18 3300.8134 L 3965.77 3300.4034 L 3965.57 3299.9934 L 3965.36 3299.3734 L 3965.36 3298.3534 L 3965.57 3297.7434 L 3965.77 3297.3334 L 3966.18 3296.9234 L 3966.8 3296.7234 L 3968.23 3296.7234 M 3960.95 3299.9934 L 3961.15 3300.4034 L 3961.56 3300.8134 L 3961.97 3301.0134 L 3962.79 3301.0134 L 3963.2 3300.8134 L 3963.6 3300.4034 L 3963.81 3299.9934 L 3964.01 3299.3734 L 3964.01 3298.3534 L 3963.81 3297.7434 L 3963.6 3297.3334 L 3963.2 3296.9234 L 3962.79 3296.7234 L 3961.97 3296.7234 L 3961.56 3296.9234 L 3961.15 3297.3334 L 3960.95 3297.7434 M 3959.6 3301.0134 L 3959.6 3296.7234 M 3956.73 3301.0134 L 3959.6 3298.1534 M 3958.57 3299.1734 L 3956.73 3296.7234 M 3954.97 3301.0134 L 3952.72 3301.0134 L 3953.95 3299.3734 L 3953.34 3299.3734 L 3952.93 3299.1734 L 3952.72 3298.9734 L 3952.52 3298.3534 L 3952.52 3297.9434 L 3952.72 3297.3334 L 3953.13 3296.9234 L 3953.75 3296.7234 L 3954.36 3296.7234 L 3954.97 3296.9234 L 3955.18 3297.1234 L 3955.38 3297.5334" fill="none"  stroke-width="0.6" c_note="note_name" /></g><g c_partid="part_pcbtext" c_etype="" c_origin="4013.35,3289.473" c_rotation="180" c_mirror="0" id="gge15" locked="0" layerid="3" c_shapetype="group" display="none"><path c_fontsize="4.5" c_fontfamily="" c_text="AND1" d="M 4011.71 3294.0134 L 4013.35 3289.7234 M 4011.71 3294.0134 L 4010.08 3289.7234 M 4012.74 3291.1534 L 4010.69 3291.1534 M 4008.73 3294.0134 L 4008.73 3289.7234 M 4008.73 3294.0134 L 4005.86 3289.7234 M 4005.86 3294.0134 L 4005.86 3289.7234 M 4004.51 3294.0134 L 4004.51 3289.7234 M 4004.51 3294.0134 L 4003.08 3294.0134 L 4002.47 3293.8134 L 4002.06 3293.4034 L 4001.85 3292.9934 L 4001.65 3292.3734 L 4001.65 3291.3534 L 4001.85 3290.7434 L 4002.06 3290.3334 L 4002.47 3289.9234 L 4003.08 3289.7234 L 4004.51 3289.7234 M 4000.3 3293.1934 L 3999.89 3293.4034 L 3999.28 3294.0134 L 3999.28 3289.7234" fill="none"  stroke-width="0.6" c_note="note_pre" /></g><g c_partid="part_pcbtext" c_etype="" c_origin="4027.464,3308.287" c_rotation="180" c_mirror="0" id="gge831" locked="0" layerid="3" c_shapetype="group" display="none"><path c_fontsize="4.5" c_fontfamily="" c_text="SN74LVC1G86DCKRG4" d="M 4024.604 3312.2172 L 4025.014 3312.6272 L 4025.624 3312.8272 L 4026.444 3312.8272 L 4027.054 3312.6272 L 4027.464 3312.2172 L 4027.464 3311.8072 L 4027.264 3311.3972 L 4027.054 3311.1872 L 4026.644 3310.9872 L 4025.414 3310.5772 L 4025.014 3310.3772 L 4024.804 3310.1672 L 4024.604 3309.7572 L 4024.604 3309.1472 L 4025.014 3308.7372 L 4025.624 3308.5372 L 4026.444 3308.5372 L 4027.054 3308.7372 L 4027.464 3309.1472 M 4023.254 3312.8272 L 4023.254 3308.5372 M 4023.254 3312.8272 L 4020.384 3308.5372 M 4020.384 3312.8272 L 4020.384 3308.5372 M 4016.174 3312.8272 L 4018.214 3308.5372 M 4019.034 3312.8272 L 4016.174 3312.8272 M 4012.774 3312.8272 L 4014.824 3309.9672 L 4011.754 3309.9672 M 4012.774 3312.8272 L 4012.774 3308.5372 M 4010.404 3312.8272 L 4010.404 3308.5372 M 4010.404 3308.5372 L 4007.954 3308.5372 M 4006.604 3312.8272 L 4004.964 3308.5372 M 4003.324 3312.8272 L 4004.964 3308.5372 M 3998.914 3311.8072 L 3999.114 3312.2172 L 3999.524 3312.6272 L 3999.934 3312.8272 L 4000.754 3312.8272 L 4001.164 3312.6272 L 4001.564 3312.2172 L 4001.774 3311.8072 L 4001.974 3311.1872 L 4001.974 3310.1672 L 4001.774 3309.5572 L 4001.564 3309.1472 L 4001.164 3308.7372 L 4000.754 3308.5372 L 3999.934 3308.5372 L 3999.524 3308.7372 L 3999.114 3309.1472 L 3998.914 3309.5572 M 3997.564 3312.0072 L 3997.154 3312.2172 L 3996.534 3312.8272 L 3996.534 3308.5372 M 3992.114 3311.8072 L 3992.324 3312.2172 L 3992.734 3312.6272 L 3993.144 3312.8272 L 3993.964 3312.8272 L 3994.364 3312.6272 L 3994.774 3312.2172 L 3994.984 3311.8072 L 3995.184 3311.1872 L 3995.184 3310.1672 L 3994.984 3309.5572 L 3994.774 3309.1472 L 3994.364 3308.7372 L 3993.964 3308.5372 L 3993.144 3308.5372 L 3992.734 3308.7372 L 3992.324 3309.1472 L 3992.114 3309.5572 L 3992.114 3310.1672 M 3993.144 3310.1672 L 3992.114 3310.1672 M 3989.744 3312.8272 L 3990.364 3312.6272 L 3990.564 3312.2172 L 3990.564 3311.8072 L 3990.364 3311.3972 L 3989.954 3311.1872 L 3989.134 3310.9872 L 3988.514 3310.7872 L 3988.114 3310.3772 L 3987.904 3309.9672 L 3987.904 3309.3472 L 3988.114 3308.9372 L 3988.314 3308.7372 L 3988.924 3308.5372 L 3989.744 3308.5372 L 3990.364 3308.7372 L 3990.564 3308.9372 L 3990.764 3309.3472 L 3990.764 3309.9672 L 3990.564 3310.3772 L 3990.154 3310.7872 L 3989.544 3310.9872 L 3988.724 3311.1872 L 3988.314 3311.3972 L 3988.114 3311.8072 L 3988.114 3312.2172 L 3988.314 3312.6272 L 3988.924 3312.8272 L 3989.744 3312.8272 M 3984.104 3312.2172 L 3984.304 3312.6272 L 3984.914 3312.8272 L 3985.324 3312.8272 L 3985.944 3312.6272 L 3986.354 3312.0072 L 3986.554 3310.9872 L 3986.554 3309.9672 L 3986.354 3309.1472 L 3985.944 3308.7372 L 3985.324 3308.5372 L 3985.124 3308.5372 L 3984.514 3308.7372 L 3984.104 3309.1472 L 3983.894 3309.7572 L 3983.894 3309.9672 L 3984.104 3310.5772 L 3984.514 3310.9872 L 3985.124 3311.1872 L 3985.324 3311.1872 L 3985.944 3310.9872 L 3986.354 3310.5772 L 3986.554 3309.9672 M 3982.544 3312.8272 L 3982.544 3308.5372 M 3982.544 3312.8272 L 3981.114 3312.8272 L 3980.504 3312.6272 L 3980.094 3312.2172 L 3979.884 3311.8072 L 3979.684 3311.1872 L 3979.684 3310.1672 L 3979.884 3309.5572 L 3980.094 3309.1472 L 3980.504 3308.7372 L 3981.114 3308.5372 L 3982.544 3308.5372 M 3975.264 3311.8072 L 3975.464 3312.2172 L 3975.874 3312.6272 L 3976.284 3312.8272 L 3977.104 3312.8272 L 3977.514 3312.6272 L 3977.924 3312.2172 L 3978.124 3311.8072 L 3978.334 3311.1872 L 3978.334 3310.1672 L 3978.124 3309.5572 L 3977.924 3309.1472 L 3977.514 3308.7372 L 3977.104 3308.5372 L 3976.284 3308.5372 L 3975.874 3308.7372 L 3975.464 3309.1472 L 3975.264 3309.5572 M 3973.914 3312.8272 L 3973.914 3308.5372 M 3971.054 3312.8272 L 3973.914 3309.9672 M 3972.894 3310.9872 L 3971.054 3308.5372 M 3969.704 3312.8272 L 3969.704 3308.5372 M 3969.704 3312.8272 L 3967.864 3312.8272 L 3967.244 3312.6272 L 3967.044 3312.4172 L 3966.834 3312.0072 L 3966.834 3311.5972 L 3967.044 3311.1872 L 3967.244 3310.9872 L 3967.864 3310.7872 L 3969.704 3310.7872 M 3968.264 3310.7872 L 3966.834 3308.5372 M 3962.414 3311.8072 L 3962.624 3312.2172 L 3963.034 3312.6272 L 3963.444 3312.8272 L 3964.264 3312.8272 L 3964.664 3312.6272 L 3965.074 3312.2172 L 3965.284 3311.8072 L 3965.484 3311.1872 L 3965.484 3310.1672 L 3965.284 3309.5572 L 3965.074 3309.1472 L 3964.664 3308.7372 L 3964.264 3308.5372 L 3963.444 3308.5372 L 3963.034 3308.7372 L 3962.624 3309.1472 L 3962.414 3309.5572 L 3962.414 3310.1672 M 3963.444 3310.1672 L 3962.414 3310.1672 M 3959.024 3312.8272 L 3961.064 3309.9672 L 3958.004 3309.9672 M 3959.024 3312.8272 L 3959.024 3308.5372" fill="none"  stroke-width="0.6" c_note="note_name" /></g><g c_partid="part_pcbtext" c_etype="" c_origin="4029.2,3292.9" c_rotation="180" c_mirror="0" id="gge837" locked="0" layerid="3" c_shapetype="group" ><path c_fontsize="4.5" c_fontfamily="" c_text="X" d="M 4029.2 3297.44 L 4026.34 3293.15 M 4026.34 3297.44 L 4029.2 3293.15" fill="none"  stroke-width="0.6" c_note="note_pre" /></g><g c_partid="part_pcbtext" c_etype="" c_origin="4028.35,3296.473" c_rotation="180" c_mirror="0" id="gge156" locked="0" layerid="3" c_shapetype="group" display="none"><path c_fontsize="4.5" c_fontfamily="" c_text="SN74LVC1G08DCK3" d="M 4025.49 3300.4034 L 4025.9 3300.8134 L 4026.51 3301.0134 L 4027.33 3301.0134 L 4027.94 3300.8134 L 4028.35 3300.4034 L 4028.35 3299.9934 L 4028.15 3299.5834 L 4027.94 3299.3734 L 4027.53 3299.1734 L 4026.3 3298.7634 L 4025.9 3298.5634 L 4025.69 3298.3534 L 4025.49 3297.9434 L 4025.49 3297.3334 L 4025.9 3296.9234 L 4026.51 3296.7234 L 4027.33 3296.7234 L 4027.94 3296.9234 L 4028.35 3297.3334 M 4024.14 3301.0134 L 4024.14 3296.7234 M 4024.14 3301.0134 L 4021.27 3296.7234 M 4021.27 3301.0134 L 4021.27 3296.7234 M 4017.06 3301.0134 L 4019.1 3296.7234 M 4019.92 3301.0134 L 4017.06 3301.0134 M 4013.66 3301.0134 L 4015.71 3298.1534 L 4012.64 3298.1534 M 4013.66 3301.0134 L 4013.66 3296.7234 M 4011.29 3301.0134 L 4011.29 3296.7234 M 4011.29 3296.7234 L 4008.84 3296.7234 M 4007.49 3301.0134 L 4005.85 3296.7234 M 4004.21 3301.0134 L 4005.85 3296.7234 M 3999.8 3299.9934 L 4000 3300.4034 L 4000.41 3300.8134 L 4000.82 3301.0134 L 4001.64 3301.0134 L 4002.05 3300.8134 L 4002.45 3300.4034 L 4002.66 3299.9934 L 4002.86 3299.3734 L 4002.86 3298.3534 L 4002.66 3297.7434 L 4002.45 3297.3334 L 4002.05 3296.9234 L 4001.64 3296.7234 L 4000.82 3296.7234 L 4000.41 3296.9234 L 4000 3297.3334 L 3999.8 3297.7434 M 3998.45 3300.1934 L 3998.04 3300.4034 L 3997.42 3301.0134 L 3997.42 3296.7234 M 3993 3299.9934 L 3993.21 3300.4034 L 3993.62 3300.8134 L 3994.03 3301.0134 L 3994.85 3301.0134 L 3995.25 3300.8134 L 3995.66 3300.4034 L 3995.87 3299.9934 L 3996.07 3299.3734 L 3996.07 3298.3534 L 3995.87 3297.7434 L 3995.66 3297.3334 L 3995.25 3296.9234 L 3994.85 3296.7234 L 3994.03 3296.7234 L 3993.62 3296.9234 L 3993.21 3297.3334 L 3993 3297.7434 L 3993 3298.3534 M 3994.03 3298.3534 L 3993 3298.3534 M 3990.43 3301.0134 L 3991.04 3300.8134 L 3991.45 3300.1934 L 3991.65 3299.1734 L 3991.65 3298.5634 L 3991.45 3297.5334 L 3991.04 3296.9234 L 3990.43 3296.7234 L 3990.02 3296.7234 L 3989.4 3296.9234 L 3989 3297.5334 L 3988.79 3298.5634 L 3988.79 3299.1734 L 3989 3300.1934 L 3989.4 3300.8134 L 3990.02 3301.0134 L 3990.43 3301.0134 M 3986.42 3301.0134 L 3987.03 3300.8134 L 3987.24 3300.4034 L 3987.24 3299.9934 L 3987.03 3299.5834 L 3986.62 3299.3734 L 3985.8 3299.1734 L 3985.19 3298.9734 L 3984.78 3298.5634 L 3984.58 3298.1534 L 3984.58 3297.5334 L 3984.78 3297.1234 L 3984.99 3296.9234 L 3985.6 3296.7234 L 3986.42 3296.7234 L 3987.03 3296.9234 L 3987.24 3297.1234 L 3987.44 3297.5334 L 3987.44 3298.1534 L 3987.24 3298.5634 L 3986.83 3298.9734 L 3986.21 3299.1734 L 3985.4 3299.3734 L 3984.99 3299.5834 L 3984.78 3299.9934 L 3984.78 3300.4034 L 3984.99 3300.8134 L 3985.6 3301.0134 L 3986.42 3301.0134 M 3983.23 3301.0134 L 3983.23 3296.7234 M 3983.23 3301.0134 L 3981.8 3301.0134 L 3981.18 3300.8134 L 3980.77 3300.4034 L 3980.57 3299.9934 L 3980.36 3299.3734 L 3980.36 3298.3534 L 3980.57 3297.7434 L 3980.77 3297.3334 L 3981.18 3296.9234 L 3981.8 3296.7234 L 3983.23 3296.7234 M 3975.95 3299.9934 L 3976.15 3300.4034 L 3976.56 3300.8134 L 3976.97 3301.0134 L 3977.79 3301.0134 L 3978.2 3300.8134 L 3978.6 3300.4034 L 3978.81 3299.9934 L 3979.01 3299.3734 L 3979.01 3298.3534 L 3978.81 3297.7434 L 3978.6 3297.3334 L 3978.2 3296.9234 L 3977.79 3296.7234 L 3976.97 3296.7234 L 3976.56 3296.9234 L 3976.15 3297.3334 L 3975.95 3297.7434 M 3974.6 3301.0134 L 3974.6 3296.7234 M 3971.73 3301.0134 L 3974.6 3298.1534 M 3973.57 3299.1734 L 3971.73 3296.7234 M 3969.97 3301.0134 L 3967.72 3301.0134 L 3968.95 3299.3734 L 3968.34 3299.3734 L 3967.93 3299.1734 L 3967.72 3298.9734 L 3967.52 3298.3534 L 3967.52 3297.9434 L 3967.72 3297.3334 L 3968.13 3296.9234 L 3968.75 3296.7234 L 3969.36 3296.7234 L 3969.97 3296.9234 L 3970.18 3297.1234 L 3970.38 3297.5334" fill="none"  stroke-width="0.6" c_note="note_name" /></g><g c_partid="part_pcbtext" c_etype="" c_origin="4028.35,3289.473" c_rotation="180" c_mirror="0" id="gge162" locked="0" layerid="3" c_shapetype="group" display="none"><path c_fontsize="4.5" c_fontfamily="" c_text="AND2" d="M 4026.71 3294.0134 L 4028.35 3289.7234 M 4026.71 3294.0134 L 4025.08 3289.7234 M 4027.74 3291.1534 L 4025.69 3291.1534 M 4023.73 3294.0134 L 4023.73 3289.7234 M 4023.73 3294.0134 L 4020.86 3289.7234 M 4020.86 3294.0134 L 4020.86 3289.7234 M 4019.51 3294.0134 L 4019.51 3289.7234 M 4019.51 3294.0134 L 4018.08 3294.0134 L 4017.47 3293.8134 L 4017.06 3293.4034 L 4016.85 3292.9934 L 4016.65 3292.3734 L 4016.65 3291.3534 L 4016.85 3290.7434 L 4017.06 3290.3334 L 4017.47 3289.9234 L 4018.08 3289.7234 L 4019.51 3289.7234 M 4015.1 3292.9934 L 4015.1 3293.1934 L 4014.89 3293.6034 L 4014.69 3293.8134 L 4014.28 3294.0134 L 4013.46 3294.0134 L 4013.05 3293.8134 L 4012.85 3293.6034 L 4012.64 3293.1934 L 4012.64 3292.7834 L 4012.85 3292.3734 L 4013.25 3291.7634 L 4015.3 3289.7234 L 4012.44 3289.7234" fill="none"  stroke-width="0.6" c_note="note_pre" /></g><g c_partid="part_pcbtext" c_etype="" c_origin="4038.85,3273.973" c_rotation="270" c_mirror="0" id="gge519" locked="0" layerid="3" c_shapetype="group" display="none"><path c_fontsize="4.5" c_fontfamily="" c_text="SN74LVC1G32DCKR" d="M 4042.78 3276.8334 L 4043.19 3276.4234 L 4043.39 3275.8134 L 4043.39 3274.9934 L 4043.19 3274.3834 L 4042.78 3273.9734 L 4042.37 3273.9734 L 4041.96 3274.1734 L 4041.75 3274.3834 L 4041.55 3274.7934 L 4041.14 3276.0234 L 4040.94 3276.4234 L 4040.73 3276.6334 L 4040.32 3276.8334 L 4039.71 3276.8334 L 4039.3 3276.4234 L 4039.1 3275.8134 L 4039.1 3274.9934 L 4039.3 3274.3834 L 4039.71 3273.9734 M 4043.39 3278.1834 L 4039.1 3278.1834 M 4043.39 3278.1834 L 4039.1 3281.0534 M 4043.39 3281.0534 L 4039.1 3281.0534 M 4043.39 3285.2634 L 4039.1 3283.2234 M 4043.39 3282.4034 L 4043.39 3285.2634 M 4043.39 3288.6634 L 4040.53 3286.6134 L 4040.53 3289.6834 M 4043.39 3288.6634 L 4039.1 3288.6634 M 4043.39 3291.0334 L 4039.1 3291.0334 M 4039.1 3291.0334 L 4039.1 3293.4834 M 4043.39 3294.8334 L 4039.1 3296.4734 M 4043.39 3298.1134 L 4039.1 3296.4734 M 4042.37 3302.5234 L 4042.78 3302.3234 L 4043.19 3301.9134 L 4043.39 3301.5034 L 4043.39 3300.6834 L 4043.19 3300.2734 L 4042.78 3299.8734 L 4042.37 3299.6634 L 4041.75 3299.4634 L 4040.73 3299.4634 L 4040.12 3299.6634 L 4039.71 3299.8734 L 4039.3 3300.2734 L 4039.1 3300.6834 L 4039.1 3301.5034 L 4039.3 3301.9134 L 4039.71 3302.3234 L 4040.12 3302.5234 M 4042.57 3303.8734 L 4042.78 3304.2834 L 4043.39 3304.9034 L 4039.1 3304.9034 M 4042.37 3309.3234 L 4042.78 3309.1134 L 4043.19 3308.7034 L 4043.39 3308.2934 L 4043.39 3307.4734 L 4043.19 3307.0734 L 4042.78 3306.6634 L 4042.37 3306.4534 L 4041.75 3306.2534 L 4040.73 3306.2534 L 4040.12 3306.4534 L 4039.71 3306.6634 L 4039.3 3307.0734 L 4039.1 3307.4734 L 4039.1 3308.2934 L 4039.3 3308.7034 L 4039.71 3309.1134 L 4040.12 3309.3234 L 4040.73 3309.3234 M 4040.73 3308.2934 L 4040.73 3309.3234 M 4043.39 3311.0734 L 4043.39 3313.3234 L 4041.75 3312.1034 L 4041.75 3312.7134 L 4041.55 3313.1234 L 4041.35 3313.3234 L 4040.73 3313.5334 L 4040.32 3313.5334 L 4039.71 3313.3234 L 4039.3 3312.9234 L 4039.1 3312.3034 L 4039.1 3311.6934 L 4039.3 3311.0734 L 4039.5 3310.8734 L 4039.91 3310.6734 M 4042.37 3315.0834 L 4042.57 3315.0834 L 4042.98 3315.2934 L 4043.19 3315.4934 L 4043.39 3315.9034 L 4043.39 3316.7234 L 4043.19 3317.1334 L 4042.98 3317.3334 L 4042.57 3317.5434 L 4042.16 3317.5434 L 4041.75 3317.3334 L 4041.14 3316.9234 L 4039.1 3314.8834 L 4039.1 3317.7434 M 4043.39 3319.0934 L 4039.1 3319.0934 M 4043.39 3319.0934 L 4043.39 3320.5234 L 4043.19 3321.1434 L 4042.78 3321.5534 L 4042.37 3321.7534 L 4041.75 3321.9634 L 4040.73 3321.9634 L 4040.12 3321.7534 L 4039.71 3321.5534 L 4039.3 3321.1434 L 4039.1 3320.5234 L 4039.1 3319.0934 M 4042.37 3326.3734 L 4042.78 3326.1734 L 4043.19 3325.7634 L 4043.39 3325.3534 L 4043.39 3324.5334 L 4043.19 3324.1234 L 4042.78 3323.7234 L 4042.37 3323.5134 L 4041.75 3323.3134 L 4040.73 3323.3134 L 4040.12 3323.5134 L 4039.71 3323.7234 L 4039.3 3324.1234 L 4039.1 3324.5334 L 4039.1 3325.3534 L 4039.3 3325.7634 L 4039.71 3326.1734 L 4040.12 3326.3734 M 4043.39 3327.7234 L 4039.1 3327.7234 M 4043.39 3330.5934 L 4040.53 3327.7234 M 4041.55 3328.7534 L 4039.1 3330.5934 M 4043.39 3331.9434 L 4039.1 3331.9434 M 4043.39 3331.9434 L 4043.39 3333.7834 L 4043.19 3334.3934 L 4042.98 3334.6034 L 4042.57 3334.8034 L 4042.16 3334.8034 L 4041.75 3334.6034 L 4041.55 3334.3934 L 4041.35 3333.7834 L 4041.35 3331.9434 M 4041.35 3333.3734 L 4039.1 3334.8034" fill="none"  stroke-width="0.6" c_note="note_name" /></g><g c_partid="part_pcbtext" c_etype="" c_origin="4023.5,3271.8" c_rotation="270" c_mirror="0" id="gge525" locked="0" layerid="3" c_shapetype="group" ><path c_fontsize="4.5" c_fontfamily="" c_text="O" d="M 4028.043 3273.03 L 4027.833 3272.62 L 4027.423 3272.21 L 4027.023 3272 L 4026.403 3271.8 L 4025.383 3271.8 L 4024.773 3272 L 4024.363 3272.21 L 4023.953 3272.62 L 4023.743 3273.03 L 4023.743 3273.85 L 4023.953 3274.25 L 4024.363 3274.66 L 4024.773 3274.87 L 4025.383 3275.07 L 4026.403 3275.07 L 4027.023 3274.87 L 4027.423 3274.66 L 4027.833 3274.25 L 4028.043 3273.85 L 4028.043 3273.03" fill="none"  stroke-width="0.6" c_note="note_pre" /></g><g c_partid="part_pcbtext" c_etype="" c_origin="4012.464,3308.287" c_rotation="180" c_mirror="0" id="gge669" locked="0" layerid="3" c_shapetype="group" display="none"><path c_fontsize="4.5" c_fontfamily="" c_text="SN74LVC1G86DCKRG4" d="M 4009.604 3312.2172 L 4010.014 3312.6272 L 4010.624 3312.8272 L 4011.444 3312.8272 L 4012.054 3312.6272 L 4012.464 3312.2172 L 4012.464 3311.8072 L 4012.264 3311.3972 L 4012.054 3311.1872 L 4011.644 3310.9872 L 4010.414 3310.5772 L 4010.014 3310.3772 L 4009.804 3310.1672 L 4009.604 3309.7572 L 4009.604 3309.1472 L 4010.014 3308.7372 L 4010.624 3308.5372 L 4011.444 3308.5372 L 4012.054 3308.7372 L 4012.464 3309.1472 M 4008.254 3312.8272 L 4008.254 3308.5372 M 4008.254 3312.8272 L 4005.384 3308.5372 M 4005.384 3312.8272 L 4005.384 3308.5372 M 4001.174 3312.8272 L 4003.214 3308.5372 M 4004.034 3312.8272 L 4001.174 3312.8272 M 3997.774 3312.8272 L 3999.824 3309.9672 L 3996.754 3309.9672 M 3997.774 3312.8272 L 3997.774 3308.5372 M 3995.404 3312.8272 L 3995.404 3308.5372 M 3995.404 3308.5372 L 3992.954 3308.5372 M 3991.604 3312.8272 L 3989.964 3308.5372 M 3988.324 3312.8272 L 3989.964 3308.5372 M 3983.914 3311.8072 L 3984.114 3312.2172 L 3984.524 3312.6272 L 3984.934 3312.8272 L 3985.754 3312.8272 L 3986.164 3312.6272 L 3986.564 3312.2172 L 3986.774 3311.8072 L 3986.974 3311.1872 L 3986.974 3310.1672 L 3986.774 3309.5572 L 3986.564 3309.1472 L 3986.164 3308.7372 L 3985.754 3308.5372 L 3984.934 3308.5372 L 3984.524 3308.7372 L 3984.114 3309.1472 L 3983.914 3309.5572 M 3982.564 3312.0072 L 3982.154 3312.2172 L 3981.534 3312.8272 L 3981.534 3308.5372 M 3977.114 3311.8072 L 3977.324 3312.2172 L 3977.734 3312.6272 L 3978.144 3312.8272 L 3978.964 3312.8272 L 3979.364 3312.6272 L 3979.774 3312.2172 L 3979.984 3311.8072 L 3980.184 3311.1872 L 3980.184 3310.1672 L 3979.984 3309.5572 L 3979.774 3309.1472 L 3979.364 3308.7372 L 3978.964 3308.5372 L 3978.144 3308.5372 L 3977.734 3308.7372 L 3977.324 3309.1472 L 3977.114 3309.5572 L 3977.114 3310.1672 M 3978.144 3310.1672 L 3977.114 3310.1672 M 3974.744 3312.8272 L 3975.364 3312.6272 L 3975.564 3312.2172 L 3975.564 3311.8072 L 3975.364 3311.3972 L 3974.954 3311.1872 L 3974.134 3310.9872 L 3973.514 3310.7872 L 3973.114 3310.3772 L 3972.904 3309.9672 L 3972.904 3309.3472 L 3973.114 3308.9372 L 3973.314 3308.7372 L 3973.924 3308.5372 L 3974.744 3308.5372 L 3975.364 3308.7372 L 3975.564 3308.9372 L 3975.764 3309.3472 L 3975.764 3309.9672 L 3975.564 3310.3772 L 3975.154 3310.7872 L 3974.544 3310.9872 L 3973.724 3311.1872 L 3973.314 3311.3972 L 3973.114 3311.8072 L 3973.114 3312.2172 L 3973.314 3312.6272 L 3973.924 3312.8272 L 3974.744 3312.8272 M 3969.104 3312.2172 L 3969.304 3312.6272 L 3969.914 3312.8272 L 3970.324 3312.8272 L 3970.944 3312.6272 L 3971.354 3312.0072 L 3971.554 3310.9872 L 3971.554 3309.9672 L 3971.354 3309.1472 L 3970.944 3308.7372 L 3970.324 3308.5372 L 3970.124 3308.5372 L 3969.514 3308.7372 L 3969.104 3309.1472 L 3968.894 3309.7572 L 3968.894 3309.9672 L 3969.104 3310.5772 L 3969.514 3310.9872 L 3970.124 3311.1872 L 3970.324 3311.1872 L 3970.944 3310.9872 L 3971.354 3310.5772 L 3971.554 3309.9672 M 3967.544 3312.8272 L 3967.544 3308.5372 M 3967.544 3312.8272 L 3966.114 3312.8272 L 3965.504 3312.6272 L 3965.094 3312.2172 L 3964.884 3311.8072 L 3964.684 3311.1872 L 3964.684 3310.1672 L 3964.884 3309.5572 L 3965.094 3309.1472 L 3965.504 3308.7372 L 3966.114 3308.5372 L 3967.544 3308.5372 M 3960.264 3311.8072 L 3960.464 3312.2172 L 3960.874 3312.6272 L 3961.284 3312.8272 L 3962.104 3312.8272 L 3962.514 3312.6272 L 3962.924 3312.2172 L 3963.124 3311.8072 L 3963.334 3311.1872 L 3963.334 3310.1672 L 3963.124 3309.5572 L 3962.924 3309.1472 L 3962.514 3308.7372 L 3962.104 3308.5372 L 3961.284 3308.5372 L 3960.874 3308.7372 L 3960.464 3309.1472 L 3960.264 3309.5572 M 3958.914 3312.8272 L 3958.914 3308.5372 M 3956.054 3312.8272 L 3958.914 3309.9672 M 3957.894 3310.9872 L 3956.054 3308.5372 M 3954.704 3312.8272 L 3954.704 3308.5372 M 3954.704 3312.8272 L 3952.864 3312.8272 L 3952.244 3312.6272 L 3952.044 3312.4172 L 3951.834 3312.0072 L 3951.834 3311.5972 L 3952.044 3311.1872 L 3952.244 3310.9872 L 3952.864 3310.7872 L 3954.704 3310.7872 M 3953.264 3310.7872 L 3951.834 3308.5372 M 3947.414 3311.8072 L 3947.624 3312.2172 L 3948.034 3312.6272 L 3948.444 3312.8272 L 3949.264 3312.8272 L 3949.664 3312.6272 L 3950.074 3312.2172 L 3950.284 3311.8072 L 3950.484 3311.1872 L 3950.484 3310.1672 L 3950.284 3309.5572 L 3950.074 3309.1472 L 3949.664 3308.7372 L 3949.264 3308.5372 L 3948.444 3308.5372 L 3948.034 3308.7372 L 3947.624 3309.1472 L 3947.414 3309.5572 L 3947.414 3310.1672 M 3948.444 3310.1672 L 3947.414 3310.1672 M 3944.024 3312.8272 L 3946.064 3309.9672 L 3943.004 3309.9672 M 3944.024 3312.8272 L 3944.024 3308.5372" fill="none"  stroke-width="0.6" c_note="note_name" /></g><g c_partid="part_pcbtext" c_etype="" c_origin="4014.2,3292.9" c_rotation="180" c_mirror="0" id="gge675" locked="0" layerid="3" c_shapetype="group" ><path c_fontsize="4.5" c_fontfamily="" c_text="X" d="M 4014.204 3297.437 L 4011.334 3293.147 M 4011.334 3297.437 L 4014.204 3293.147" fill="none"  stroke-width="0.6" c_note="note_pre" /></g><circle cx="4009.267" cy="3280.26" r="0.197" stroke-width="0.3937" fill="none" layerid="3" id="gge33" locked="0"  /><circle cx="4011.826" cy="3281.402" r="0.197" stroke-width="0.3937" fill="none" layerid="3" id="gge36" locked="0"  /><circle cx="4023.35" cy="3290.473" r="0.5" stroke-width="1" fill="none" layerid="3" id="gge873" locked="0"  /><circle cx="4024.267" cy="3280.26" r="0.197" stroke-width="0.3937" fill="none" layerid="3" id="gge180" locked="0"  /><circle cx="4026.826" cy="3281.402" r="0.197" stroke-width="0.3937" fill="none" layerid="3" id="gge183" locked="0"  /><circle cx="4020.89" cy="3277.897" r="0.591" stroke-width="1.1811" fill="none" layerid="3" id="gge579" locked="0"  /><circle cx="4008.35" cy="3290.473" r="0.5" stroke-width="1" fill="none" layerid="3" id="gge711" locked="0"  /><polyline points="3998 3255.9 4042 3255.9 4042 3311.5 3998 3311.5 3998 3255.9" stroke-width="1"  stroke-linecap="round" fill="none" layerid="10" net="" id="gge3574" locked="0" /></svg>