<svg xmlns="http://www.w3.org/2000/svg" xmlns:xlink="http://www.w3.org/1999/xlink" width="93.383mm" height="55.055mm" viewBox="3941.4 3201 245.1 144.5"><title></title><style type="text/css">
*[layerid="1"] {stroke:#000000;fill:#000000;}
*[layerid="2"] {stroke:#000000;fill:#000000;}
*[layerid="3"] {stroke:#000000;fill:#000000;}
*[layerid="4"] {stroke:#000000;fill:#000000;}
*[layerid="5"] {stroke:#000000;fill:#000000;}
*[layerid="6"] {stroke:#000000;fill:#000000;}
*[layerid="7"] {stroke:#000000;fill:#000000;}
*[layerid="8"] {stroke:#000000;fill:#000000;}
*[layerid="9"] {stroke:#000000;fill:#000000;}
*[layerid="10"] {stroke:#000000;fill:#000000;}
*[layerid="11"] {stroke:#000000;fill:#000000;}
*[layerid="12"] {stroke:#000000;fill:#000000;}
*[layerid="13"] {stroke:#000000;fill:#000000;}
*[layerid="14"] {stroke:#000000;fill:#000000;}
*[layerid="15"] {stroke:#000000;fill:#000000;}
*[layerid="19"] {stroke:#000000;fill:#000000;}
*[layerid="21"] {stroke:#000000;fill:#000000;}
*[layerid="22"] {stroke:#000000;fill:#000000;}
*[layerid="23"] {stroke:#000000;fill:#000000;}
*[layerid="24"] {stroke:#000000;fill:#000000;}
*[layerid="25"] {stroke:#000000;fill:#000000;}
*[layerid="26"] {stroke:#000000;fill:#000000;}
*[layerid="27"] {stroke:#000000;fill:#000000;}
*[layerid="28"] {stroke:#000000;fill:#000000;}
*[layerid="29"] {stroke:#000000;fill:#000000;}
*[layerid="30"] {stroke:#000000;fill:#000000;}
*[layerid="31"] {stroke:#000000;fill:#000000;}
*[layerid="32"] {stroke:#000000;fill:#000000;}
*[layerid="33"] {stroke:#000000;fill:#000000;}
*[layerid="34"] {stroke:#000000;fill:#000000;}
*[layerid="35"] {stroke:#000000;fill:#000000;}
*[layerid="36"] {stroke:#000000;fill:#000000;}
*[layerid="37"] {stroke:#000000;fill:#000000;}
*[layerid="38"] {stroke:#000000;fill:#000000;}
*[layerid="39"] {stroke:#000000;fill:#000000;}
*[layerid="40"] {stroke:#000000;fill:#000000;}
*[layerid="41"] {stroke:#000000;fill:#000000;}
*[layerid="42"] {stroke:#000000;fill:#000000;}
*[layerid="43"] {stroke:#000000;fill:#000000;}
*[layerid="44"] {stroke:#000000;fill:#000000;}
*[layerid="45"] {stroke:#000000;fill:#000000;}
*[layerid="46"] {stroke:#000000;fill:#000000;}
*[layerid="47"] {stroke:#000000;fill:#000000;}
*[layerid="48"] {stroke:#000000;fill:#000000;}
*[layerid="49"] {stroke:#000000;fill:#000000;}
*[layerid="50"] {stroke:#000000;fill:#000000;}
*[layerid="51"] {stroke:#000000;fill:#000000;}
*[layerid="52"] {stroke:#000000;fill:#000000;}
*[layerid="99"] {stroke:#000000;fill:#000000;}
*[layerid="100"] {stroke:#000000;fill:#000000;}
*[layerid="101"] {stroke:#000000;fill:#000000;}
*[layerid="Hole"] {stroke:#000000;fill:#000000;}
*[layerid="DRCError"] {stroke:#000000;fill:#000000;}
*[fill="none"] {fill: none;}
*[stroke="none"] {stroke: none;}
path, polyline, polygon, line {stroke-linecap:round;}
g[c_partid="part_pad"][layerid="1"] ellipse:not([c_etype="pad_outer"]) {fill:#000000;}
g[c_partid="part_pad"][layerid="1"] polygon:not([c_etype="pad_outer"]) {fill:#000000;}
g[c_partid="part_pad"][layerid="1"] polyline:not([c_etype="pad_outer"]) {stroke:#000000;}
g[c_partid="part_pad"][layerid="2"] ellipse:not([c_etype="pad_outer"]) {fill:#000000;}
g[c_partid="part_pad"][layerid="2"] polygon:not([c_etype="pad_outer"]) {fill:#000000;}
g[c_partid="part_pad"][layerid="2"] polyline:not([c_etype="pad_outer"]) {stroke:#000000;}
g[c_partid="part_pad"][layerid="11"] ellipse:not([c_etype="pad_outer"]) {fill:#000000;}
g[c_partid="part_pad"][layerid="11"] polygon:not([c_etype="pad_outer"]) {fill:#000000;}
g[c_partid="part_pad"][layerid="11"] polyline:not([c_etype="pad_outer"]) {stroke:#000000;}
g[c_partid="part_pad"][layerid="11"] circle {fill:#FFFFFF;}
g[c_partid="part_pad"][layerid="11"] > polyline:nth-of-type(2) {stroke:#FFFFFF;}
g[c_partid="part_pad"][layerid="11"][c_shape="ELLIPSE"]  polyline:nth-last-of-type(1) {stroke:#FFFFFF;}
g[c_partid="part_pad"][layerid="11"][c_shape="RECT"]  polyline:nth-last-of-type(1) {stroke:#FFFFFF;}
g[c_partid="part_pad"][layerid="11"][c_shape="POLYGON"]  polyline:nth-last-of-type(1) {stroke:#FFFFFF;}
g[c_partid="part_via"] > * + circle, #gCurParts g[c_partid="part_via"] > * + circle {fill:#FFFFFF;}
g[c_partid="part_pad"] > polygon[c_etype="pad_outer"], #gCurParts g[c_partid="part_pad"] > polygon[c_etype="pad_outer"] {stroke-linejoin: round;stroke-miterlimit: 100;}
g[c_partid="part_hole"] > circle {fill: #FFFFFF;}path, polyline, polygon {stroke-linejoin:round;}
rect, circle, ellipse, polyline, line, polygon, path {shape-rendering:crispEdges;}
</style>
<rect x="3941.4" y="3201" width="245.1" height="144.5" fill="#FFFFFF" stroke="none"/><path d="M 4122.3346 3302.68 L 4122.18153 3302.64955 4122.11924 3302.60793 4122.07517 3302.64205 4121.9051 3302.68 4010.42 3302.68 4010.26693 3302.64955 4010.13716 3302.56284 4010.05045 3302.43307 4010.02 3302.28 4010.02 3236.42 4010.05045 3236.26693 4010.13716 3236.13716 4010.26693 3236.05045 4010.42 3236.02 4137.58 3236.02 4137.73307 3236.05045 4137.86284 3236.13716 4137.94955 3236.26693 4137.98 3236.42 4137.98 3302.28 4137.94955 3302.43307 4137.86284 3302.56284 4137.73307 3302.64955 4137.58 3302.68 4128.7633 3302.68 4128.59323 3302.64205 4128.54916 3302.60793 4128.48687 3302.64955 4128.3338 3302.68 4122.3346 3302.68 Z M 4065.06497 3293.84936 L 4065.17414 3293.8514 4107.19016 3293.8514 4107.29933 3293.84936 4107.65138 3293.81635 4107.74796 3293.79994 4108.09115 3293.71482 4108.18421 3293.6842 4108.51088 3293.54889 4108.59834 3293.50474 4108.90119 3293.32225 4108.98109 3293.26556 4109.25337 3293.03997 4109.33201 3292.96422 4113.47113 3288.8251 4113.53777 3288.7714 4115.15198 3287.7344 4115.2372 3287.69299 4115.36205 3287.66967 4115.90744 3287.54519 4116.43243 3287.35198 4116.92841 3287.09323 4117.38722 3286.77318 4117.80134 3286.39709 4118.16397 3285.97113 4118.46915 3285.50229 4118.71187 3284.99828 4118.88815 3284.46736 4118.99508 3283.91826 4119.03093 3283.36 4118.99508 3282.80174 4118.88815 3282.25264 4118.71187 3281.72172 4118.46915 3281.21771 4118.16397 3280.74887 4117.80134 3280.32291 4117.38722 3279.94682 4116.92841 3279.62677 4116.43243 3279.36802 4115.90744 3279.17481 4115.36205 3279.05033 4114.80523 3278.99662 4114.2461 3279.01455 4113.69386 3279.10383 4113.15757 3279.263 4112.64603 3279.48944 4112.16765 3279.77943 4111.73029 3280.12822 4111.34111 3280.53008 4111.00652 3280.9784 4110.73201 3281.46583 4110.52208 3281.98436 4110.38018 3282.52547 4110.3579 3282.69826 4110.2977 3282.86334 4109.25436 3284.48708 4109.20068 3284.55369 4106.06013 3287.69424 4105.93036 3287.78095 4105.77729 3287.8114 4088.6327 3287.8114 4088.47963 3287.78095 4088.34986 3287.69424 4088.26315 3287.56447 4088.2327 3287.4114 4088.2327 3287.07875 4086.0749 3287.07875 4086.0749 3287.4114 4086.04445 3287.56447 4085.95774 3287.69424 4085.82797 3287.78095 4085.6749 3287.8114 4083.1993 3287.8114 4083.04623 3287.78095 4082.91646 3287.69424 4082.82975 3287.56447 4082.7993 3287.4114 4082.7993 3287.07875 4080.7585 3287.07875 4080.60543 3287.0483 4080.47566 3286.96159 4080.38895 3286.83182 4080.3585 3286.67875 4080.3585 3284.32125 4080.38895 3284.16818 4080.47566 3284.03841 4080.60543 3283.9517 4080.7585 3283.92125 4082.7993 3283.92125 4082.7993 3281.8225 4081.68396 3281.8225 4081.43509 3281.85054 4081.22004 3281.92579 4081.02712 3282.04701 4080.86601 3282.20812 4080.72779 3282.36759 4080.58024 3282.43066 4080.41976 3282.43066 4080.27221 3282.36759 4080.13399 3282.20812 4079.97288 3282.04701 4079.78109 3281.9265 4079.51523 3281.83543 4079.38152 3281.75811 4079.28708 3281.6359 4078.31223 3279.6862 4078.27 3279.50731 4078.27 3275.45729 4078.31223 3275.2784 4079.26985 3273.36316 4079.35847 3273.24615 4079.48333 3273.16898 4079.62762 3273.14205 4081.07989 3273.14205 4081.32876 3273.11401 4081.54381 3273.03876 4081.73673 3272.91754 4081.89784 3272.75643 4082.01906 3272.56351 4082.09431 3272.34846 4082.12235 3272.09959 4082.12235 3268.01061 4082.09431 3267.76174 4082.01906 3267.54669 4081.89784 3267.35377 4081.73673 3267.19266 4081.54381 3267.07144 4081.32876 3266.99619 4081.07989 3266.96815 4071.42011 3266.96815 4071.16876 3266.99647 4070.96088 3267.06634 4068.87758 3268.0044 4068.70524 3268.03959 4068.53446 3267.99744 4067.17811 3267.31927 4067.0611 3267.23065 4066.98393 3267.10579 4066.957 3266.9615 4066.957 3266.42376 4066.92896 3266.17489 4066.85371 3265.95984 4066.73249 3265.76692 4066.57138 3265.60581 4066.37846 3265.48459 4066.16341 3265.40934 4065.91454 3265.3813 4065.29076 3265.3813 4065.12398 3265.34487 4064.98758 3265.24221 4064.9064 3265.09203 4064.89523 3264.92168 4064.95611 3264.76219 4065.07795 3264.64261 4065.29188 3264.50819 4065.45299 3264.34708 4065.53366 3264.21869 4065.60413 3264.13476 4065.69474 3264.0731 4067.80946 3263.02509 4067.98885 3262.9835 4068.14396 3262.98418 4068.28006 3263.00869 4071.03423 3264.02001 4071.265 3264.07761 4071.41048 3264.08695 4081.07989 3264.08695 4081.32876 3264.05891 4081.54381 3263.98366 4081.73673 3263.86244 4081.89784 3263.70133 4082.01906 3263.50841 4082.09431 3263.29336 4082.12235 3263.04449 4082.12235 3258.95551 4082.09431 3258.70664 4082.01906 3258.49159 4081.89784 3258.29867 4081.73673 3258.13756 4081.54381 3258.01634 4081.32876 3257.94109 4081.07989 3257.91305 4071.40728 3257.91317 4071.16877 3257.93984 4071.05575 3257.97208 4068.29346 3258.92246 4068.16156 3258.94422 4067.90483 3258.93243 4067.81813 3258.90063 4065.71837 3257.84148 4065.62925 3257.78014 4065.55983 3257.69716 4065.45299 3257.52712 4065.29188 3257.36601 4065.13241 3257.22779 4065.06934 3257.08024 4065.06934 3256.91976 4065.13241 3256.77221 4065.29188 3256.63399 4065.45299 3256.47288 4065.57421 3256.27996 4065.64946 3256.06491 4065.6775 3255.81604 4065.6775 3254.7007 4063.57875 3254.7007 4063.57875 3256.7415 4063.5483 3256.89457 4063.46159 3257.02434 4063.33182 3257.11105 4063.17875 3257.1415 4060.82125 3257.1415 4060.66818 3257.11105 4060.53841 3257.02434 4060.4517 3256.89457 4060.42125 3256.7415 4060.42125 3254.7007 4058.3225 3254.7007 4058.3225 3255.81604 4058.35054 3256.06491 4058.42579 3256.27996 4058.54701 3256.47288 4058.70812 3256.63399 4058.86759 3256.77221 4058.93066 3256.91976 4058.93066 3257.08024 4058.86759 3257.22779 4058.70812 3257.36601 4058.54701 3257.52712 4058.42579 3257.72004 4058.35054 3257.93509 4058.3225 3258.18396 4058.3225 3263.69024 4058.35054 3263.93911 4058.42579 3264.15416 4058.54701 3264.34708 4058.70812 3264.50819 4058.92205 3264.64261 4059.04389 3264.76219 4059.10477 3264.92168 4059.0936 3265.09203 4059.01242 3265.24221 4058.87602 3265.34487 4058.70924 3265.3813 4058.08546 3265.3813 4057.83659 3265.40934 4057.62154 3265.48459 4057.42862 3265.60581 4057.26751 3265.76692 4057.14629 3265.95984 4057.07104 3266.17489 4057.043 3266.42376 4057.043 3274.25284 4057.07104 3274.50171 4057.14629 3274.71676 4057.26751 3274.90968 4057.42862 3275.07079 4057.62154 3275.19201 4057.83659 3275.26726 4058.08546 3275.2953 4065.91454 3275.2953 4066.16341 3275.26726 4066.37846 3275.19201 4066.57138 3275.07079 4066.73249 3274.90968 4066.85371 3274.71676 4066.92896 3274.50171 4066.957 3274.25284 4066.957 3273.71672 4066.98393 3273.57243 4067.0611 3273.44757 4067.17811 3273.35895 4068.73091 3272.58255 4068.8682 3272.54249 4069.01081 3272.55329 4071.11537 3273.10255 4071.42345 3273.14205 4072.87238 3273.14205 4073.01667 3273.16898 4073.14153 3273.24615 4073.23015 3273.36316 4074.18777 3275.2784 4074.23 3275.45729 4074.23 3279.51481 4074.18954 3279.69011 4072.87774 3282.38062 4072.79534 3282.61609 4072.7673 3282.86496 4072.7673 3287.4114 4072.73685 3287.56447 4072.65014 3287.69424 4072.52037 3287.78095 4072.3673 3287.8114 4067.357 3287.8114 4067.20393 3287.78095 4067.07416 3287.69424 4066.98745 3287.56447 4066.957 3287.4114 4066.957 3283.74716 4066.92896 3283.49829 4066.85371 3283.28324 4066.73249 3283.09032 4066.57138 3282.92921 4066.37846 3282.80799 4066.16341 3282.73274 4065.91454 3282.7047 4058.08546 3282.7047 4057.82238 3282.73434 4057.7408 3282.75655 4051.96598 3284.62066 4051.8431 3284.64 4039.5738 3284.64 4039.42073 3284.60955 4039.29096 3284.52284 4039.20425 3284.39307 4039.1738 3284.24 4039.1738 3280.64446 4039.14576 3280.39559 4039.07051 3280.18054 4038.94929 3279.98762 4038.78818 3279.82651 4038.59526 3279.70529 4038.38021 3279.63004 4038.13134 3279.602 4025.57786 3279.602 4025.32899 3279.63004 4025.17607 3279.68355 4025.00929 3279.70449 4024.84864 3279.65507 4024.72247 3279.54401 4024.65307 3279.39092 4024.6527 3279.22283 4024.6888 3279.05298 4024.72362 3278.555 4024.6888 3278.05702 4024.58501 3277.56874 4024.53998 3277.36326 4024.57189 3277.21716 4024.65523 3277.09299 4024.77835 3277.00811 4024.92404 3276.97438 4025.07194 3276.99651 4025.32899 3277.08646 4025.57786 3277.1145 4038.14322 3277.11446 4038.27577 3277.10722 4043.80255 3276.50161 4043.96532 3276.5174 4044.10817 3276.59702 4044.49147 3276.92938 4044.87287 3277.16904 4045.28643 3277.34947 4045.72226 3277.46625 4046.17062 3277.51677 4046.62151 3277.4999 4047.06484 3277.41601 4047.49073 3277.26699 4047.88964 3277.05616 4048.25268 3276.78822 4048.57172 3276.46918 4048.83966 3276.10614 4049.05049 3275.70723 4049.19951 3275.28134 4049.2834 3274.83801 4049.30027 3274.38712 4049.24975 3273.93876 4049.13297 3273.50293 4048.95254 3273.08937 4048.71248 3272.70733 4048.40838 3272.35395 4047.35861 3271.30418 4047.27997 3271.22843 4047.00769 3271.00284 4046.92779 3270.94615 4046.62494 3270.76366 4046.53748 3270.71951 4046.21081 3270.5842 4046.11775 3270.55358 4045.77456 3270.46846 4045.67798 3270.45205 4045.32593 3270.41904 4045.21676 3270.417 4044.23129 3270.417 4044.18772 3270.41462 4039.46963 3269.89762 4039.31211 3269.84578 4039.18915 3269.7345 4039.12189 3269.58292 4039.12189 3269.41708 4039.18915 3269.2655 4039.31211 3269.15422 4039.46963 3269.10238 4044.18772 3268.58538 4044.23129 3268.583 4045.21676 3268.583 4045.32593 3268.58096 4045.67798 3268.54795 4045.77456 3268.53154 4046.11775 3268.44642 4046.21081 3268.4158 4046.53748 3268.28049 4046.62494 3268.23634 4046.92779 3268.05385 4047.00769 3267.99716 4047.27997 3267.77157 4047.35861 3267.69582 4048.40838 3266.64605 4048.71248 3266.29267 4048.95254 3265.91063 4049.13297 3265.49707 4049.24975 3265.06124 4049.30027 3264.61288 4049.2834 3264.16199 4049.19951 3263.71866 4049.05049 3263.29277 4048.83966 3262.89386 4048.57172 3262.53082 4048.25268 3262.21178 4047.88964 3261.94384 4047.49073 3261.73301 4047.06484 3261.58399 4046.62151 3261.5001 4046.17062 3261.48323 4045.72226 3261.53375 4045.28643 3261.65053 4044.87287 3261.83096 4044.49147 3262.07062 4044.10817 3262.40298 4043.96532 3262.4826 4043.80255 3262.49839 4038.27574 3261.89278 4038.14286 3261.8855 4025.57786 3261.8855 4025.32899 3261.91354 4025.07194 3262.00349 4024.92404 3262.02562 4024.77835 3261.99189 4024.65523 3261.90701 4024.57189 3261.78284 4024.53998 3261.63674 4024.6888 3260.94298 4024.72362 3260.445 4024.6888 3259.94702 4024.6527 3259.77717 4024.65307 3259.60908 4024.72247 3259.45599 4024.84864 3259.34493 4025.00929 3259.29551 4025.17607 3259.31645 4025.32899 3259.36996 4025.57786 3259.398 4028.455 3259.398 4028.455 3257.29925 4024.5354 3257.29925 4024.5354 3257.82695 4024.5045 3257.98109 4024.41659 3258.11143 4024.28524 3258.19782 4024.13075 3258.22692 4023.97697 3258.19423 4023.84766 3258.10481 4023.53973 3257.78594 4023.14636 3257.4786 4022.71405 3257.229 4022.2512 3257.042 4021.76683 3256.92124 4021.27037 3256.86906 4020.77148 3256.88648 4020.27987 3256.97316 4019.80511 3257.12742 4019.35644 3257.34625 4018.94259 3257.6254 4018.57161 3257.95943 4018.25074 3258.34183 4017.9862 3258.76517 4017.78316 3259.22121 4017.64557 3259.70107 4017.57609 3260.1954 4017.57609 3260.6946 4017.64557 3261.18893 4017.78316 3261.66879 4017.9862 3262.12483 4018.25074 3262.54817 4018.57161 3262.93057 4018.94259 3263.2646 4019.35644 3263.54375 4019.80511 3263.76258 4020.27987 3263.91684 4020.77148 3264.00352 4021.27037 3264.02094 4021.76683 3263.96876 4022.2512 3263.848 4022.71405 3263.661 4023.14636 3263.4114 4023.53973 3263.10406 4023.84766 3262.78519 4023.97697 3262.69577 4024.13075 3262.66308 4024.28524 3262.69218 4024.41659 3262.77857 4024.5045 3262.90891 4024.5354 3263.06305 4024.5354 3268.19804 4024.56344 3268.44691 4024.63869 3268.66196 4024.75991 3268.85488 4024.92111 3269.01608 4025.15232 3269.16158 4025.26821 3269.2725 4025.33119 3269.42004 4025.33113 3269.58046 4025.26806 3269.72796 4025.1521 3269.83881 4024.92102 3269.98401 4024.75991 3270.14512 4024.63869 3270.33804 4024.56344 3270.55309 4024.5354 3270.80196 4024.5354 3275.93695 4024.5045 3276.09109 4024.41659 3276.22143 4024.28524 3276.30782 4024.13075 3276.33692 4023.97697 3276.30423 4023.84766 3276.21481 4023.53973 3275.89594 4023.14636 3275.5886 4022.71405 3275.339 4022.2512 3275.152 4021.76683 3275.03124 4021.27037 3274.97906 4020.77148 3274.99648 4020.27987 3275.08316 4019.80511 3275.23742 4019.35644 3275.45625 4018.94259 3275.7354 4018.57161 3276.06943 4018.25074 3276.45183 4017.9862 3276.87517 4017.78316 3277.33121 4017.64557 3277.81107 4017.57609 3278.3054 4017.57609 3278.8046 4017.64557 3279.29893 4017.78316 3279.77879 4017.9862 3280.23483 4018.25074 3280.65817 4018.57161 3281.04057 4018.94259 3281.3746 4019.35644 3281.65375 4019.80511 3281.87258 4020.27987 3282.02684 4020.77148 3282.11352 4021.27037 3282.13094 4021.76683 3282.07876 4022.2512 3281.958 4022.71405 3281.771 4023.14636 3281.5214 4023.53973 3281.21406 4023.84766 3280.89519 4023.97697 3280.80577 4024.13075 3280.77308 4024.28524 3280.80218 4024.41659 3280.88857 4024.5045 3281.01891 4024.5354 3281.17305 4024.5354 3285.91454 4024.56344 3286.16341 4024.63869 3286.37846 4024.75991 3286.57138 4024.92102 3286.73249 4025.11394 3286.85371 4025.32899 3286.92896 4025.57786 3286.957 4029.2108 3286.957 4029.37268 3286.99122 4032.75748 3288.48923 4032.87812 3288.57184 4034.10441 3289.79533 4034.18036 3289.86842 4034.45577 3290.09634 4034.53252 3290.15073 4034.83881 3290.33505 4034.92281 3290.37739 4035.25316 3290.51401 4035.34253 3290.54336 4035.68955 3290.62921 4035.7823 3290.64492 4036.13824 3290.67809 4036.24363 3290.68 4051.83581 3290.68 4051.95871 3290.69935 4057.7401 3292.56598 4057.97883 3292.61436 4058.07229 3292.6187 4062.52109 3292.6187 4062.67319 3292.64875 4062.80244 3292.73437 4063.11301 3293.04169 4063.38321 3293.26556 4063.46311 3293.32225 4063.76596 3293.50474 4063.85342 3293.54889 4064.18009 3293.6842 4064.27315 3293.71482 4064.61634 3293.79994 4064.71292 3293.81635 4065.06497 3293.84936 Z M 4093.67124 3268.96046 L 4093.92011 3268.9885 4103.57989 3268.9885 4103.82876 3268.96046 4104.04381 3268.88521 4104.23673 3268.76399 4104.39784 3268.60288 4104.51906 3268.40996 4104.59431 3268.19491 4104.62235 3267.94604 4104.62235 3254.05396 4104.59431 3253.80509 4104.51906 3253.59004 4104.39784 3253.39712 4104.23673 3253.23601 4104.04381 3253.11479 4103.82876 3253.03954 4103.57989 3253.0115 4093.92011 3253.0115 4093.67124 3253.03954 4093.45619 3253.11479 4093.26327 3253.23601 4093.10216 3253.39712 4092.98094 3253.59004 4092.90569 3253.80509 4092.87765 3254.05396 4092.87765 3267.94604 4092.90569 3268.19491 4092.98094 3268.40996 4093.10216 3268.60288 4093.26327 3268.76399 4093.45619 3268.88521 4093.67124 3268.96046 Z M 4114.80523 3277.87338 L 4115.36205 3277.81967 4115.90744 3277.69519 4116.43243 3277.50198 4116.92841 3277.24323 4117.38722 3276.92318 4117.80134 3276.54709 4118.16397 3276.12113 4118.46915 3275.65229 4118.71187 3275.14828 4118.88815 3274.61736 4118.99508 3274.06826 4119.03093 3273.51 4118.99508 3272.95174 4118.88815 3272.40264 4118.71187 3271.87172 4118.46915 3271.36771 4118.16397 3270.89887 4117.80134 3270.47291 4117.38722 3270.09682 4117.10947 3269.90307 4117.00308 3269.79321 4116.9457 3269.65146 4116.9457 3269.49854 4117.00308 3269.35679 4117.10947 3269.24693 4117.38722 3269.05318 4117.80134 3268.67709 4118.16397 3268.25113 4118.46915 3267.78229 4118.71187 3267.27828 4118.88815 3266.74736 4118.99508 3266.19826 4119.03093 3265.64 4118.99508 3265.08174 4118.88815 3264.53264 4118.71187 3264.00172 4118.46915 3263.49771 4118.16397 3263.02887 4117.80134 3262.60291 4117.38722 3262.22682 4116.92841 3261.90677 4116.43243 3261.64802 4115.90744 3261.45481 4115.36205 3261.33033 4114.80523 3261.27662 4114.2461 3261.29455 4113.69386 3261.38383 4113.15757 3261.543 4112.64603 3261.76944 4112.16765 3262.05943 4111.73029 3262.40822 4111.34111 3262.81008 4111.00652 3263.2584 4110.73201 3263.74583 4110.52208 3264.26436 4110.38018 3264.80547 4110.30864 3265.36029 4110.30864 3265.91971 4110.38018 3266.47453 4110.52208 3267.01564 4110.73201 3267.53417 4111.00652 3268.0216 4111.34111 3268.46992 4111.73029 3268.87178 4112.18807 3269.23294 4112.30731 3269.34405 4112.37232 3269.49351 4112.37232 3269.65649 4112.30731 3269.80595 4112.16765 3269.92943 4111.73029 3270.27822 4111.34111 3270.68008 4111.00652 3271.1284 4110.73201 3271.61583 4110.52208 3272.13436 4110.38018 3272.67547 4110.30864 3273.23029 4110.30864 3273.78971 4110.38018 3274.34453 4110.52208 3274.88564 4110.73201 3275.40417 4111.00652 3275.8916 4111.34111 3276.33992 4111.73029 3276.74178 4112.16765 3277.09057 4112.64603 3277.38056 4113.15757 3277.607 4113.69386 3277.76617 4114.2461 3277.85545 4114.80523 3277.87338 Z M 4121.46288 3301.57706 L 4121.9346 3301.83889 4121.9346 3298.7657 4118.86049 3298.7657 4118.93513 3298.91787 4119.32729 3299.54703 4119.78109 3300.13329 4120.29187 3300.67063 4120.85439 3301.15354 4121.46288 3301.57706 Z M 4121.9346 3250.10669 L 4121.9346 3247.0335 4118.86049 3247.0335 4118.93513 3247.18567 4119.32729 3247.81483 4119.78109 3248.40109 4120.29187 3248.93843 4120.85439 3249.42134 4121.46288 3249.84486 4121.9346 3250.10669 Z M 4128.7338 3298.7657 L 4128.7338 3301.83889 4129.20552 3301.57706 4129.81401 3301.15354 4130.37653 3300.67063 4130.88731 3300.13329 4131.34111 3299.54703 4131.73327 3298.91787 4131.80791 3298.7657 4128.7338 3298.7657 Z M 4118.93513 3240.08213 L 4118.86049 3240.2343 4121.9346 3240.2343 4121.9346 3237.16111 4121.46288 3237.42294 4120.85439 3237.84646 4120.29187 3238.32937 4119.78109 3238.86671 4119.32729 3239.45297 4118.93513 3240.08213 Z M 4131.80791 3291.9665 L 4131.73327 3291.81433 4131.34111 3291.18517 4130.88731 3290.59891 4130.37653 3290.06157 4129.81401 3289.57866 4129.20552 3289.15514 4128.7338 3288.89331 4128.7338 3291.9665 4131.80791 3291.9665 Z M 4121.9346 3291.9665 L 4121.9346 3288.89331 4121.46288 3289.15514 4120.85439 3289.57866 4120.29187 3290.06157 4119.78109 3290.59891 4119.32729 3291.18517 4118.93513 3291.81433 4118.86049 3291.9665 4121.9346 3291.9665 Z M 4128.7338 3237.16111 L 4128.7338 3240.2343 4131.80791 3240.2343 4131.73327 3240.08213 4131.34111 3239.45297 4130.88731 3238.86671 4130.37653 3238.32937 4129.81401 3237.84646 4129.20552 3237.42294 4128.7338 3237.16111 Z M 4128.7338 3247.0335 L 4128.7338 3250.10669 4129.20552 3249.84486 4129.81401 3249.42134 4130.37653 3248.93843 4130.88731 3248.40109 4131.34111 3247.81483 4131.73327 3247.18567 4131.80791 3247.0335 4128.7338 3247.0335 Z M 4024.84078 3293.86418 L 4024.84078 3296.11055 4025.06981 3296.11055 4025.60134 3296.07571 4026.1109 3295.97435 4026.60288 3295.80735 4027.06885 3295.57756 4027.50083 3295.28891 4027.89145 3294.94635 4028.23401 3294.55573 4028.52266 3294.12375 4028.65067 3293.86418 4024.84078 3293.86418 Z M 4013.76914 3290.15185 L 4013.64113 3290.41142 4017.45102 3290.41142 4017.45102 3288.16505 4017.22199 3288.16505 4016.69046 3288.19989 4016.1809 3288.30125 4015.68892 3288.46825 4015.22295 3288.69804 4014.79097 3288.98669 4014.40035 3289.32925 4014.05779 3289.71987 4013.76914 3290.15185 Z M 4024.84078 3242.88945 L 4024.84078 3245.13582 4028.65067 3245.13582 4028.52266 3244.87625 4028.23401 3244.44427 4027.89145 3244.05365 4027.50083 3243.71109 4027.06885 3243.42244 4026.60288 3243.19265 4026.1109 3243.02565 4025.60134 3242.92429 4025.06981 3242.88945 4024.84078 3242.88945 Z M 4024.84078 3248.58858 L 4024.84078 3250.83495 4025.06981 3250.83495 4025.60134 3250.80011 4026.1109 3250.69875 4026.60288 3250.53175 4027.06885 3250.30196 4027.50083 3250.01331 4027.89145 3249.67075 4028.23401 3249.28013 4028.52266 3248.84815 4028.65067 3248.58858 4024.84078 3248.58858 Z M 4013.76914 3244.87625 L 4013.64113 3245.13582 4017.45102 3245.13582 4017.45102 3242.88945 4017.22199 3242.88945 4016.69046 3242.92429 4016.1809 3243.02565 4015.68892 3243.19265 4015.22295 3243.42244 4014.79097 3243.71109 4014.40035 3244.05365 4014.05779 3244.44427 4013.76914 3244.87625 Z M 4028.65067 3290.41142 L 4028.52266 3290.15185 4028.23401 3289.71987 4027.89145 3289.32925 4027.50083 3288.98669 4027.06885 3288.69804 4026.60288 3288.46825 4026.1109 3288.30125 4025.60134 3288.19989 4025.06981 3288.16505 4024.84078 3288.16505 4024.84078 3290.41142 4028.65067 3290.41142 Z M 4017.45102 3250.83495 L 4017.45102 3248.58858 4013.64113 3248.58858 4013.76914 3248.84815 4014.05779 3249.28013 4014.40035 3249.67075 4014.79097 3250.01331 4015.22295 3250.30196 4015.68892 3250.53175 4016.1809 3250.69875 4016.69046 3250.80011 4017.22199 3250.83495 4017.45102 3250.83495 Z M 4017.45102 3296.11055 L 4017.45102 3293.86418 4013.64113 3293.86418 4013.76914 3294.12375 4014.05779 3294.55573 4014.40035 3294.94635 4014.79097 3295.28891 4015.22295 3295.57756 4015.68892 3295.80735 4016.1809 3295.97435 4016.69046 3296.07571 4017.22199 3296.11055 4017.45102 3296.11055 Z M 4039.1738 3254.14175 L 4039.1738 3253.08546 4039.14576 3252.83659 4039.07051 3252.62154 4038.94929 3252.42862 4038.78818 3252.26751 4038.59526 3252.14629 4038.38021 3252.07104 4038.13134 3252.043 4035.2542 3252.043 4035.2542 3254.14175 4039.1738 3254.14175 Z M 4028.455 3254.14175 L 4028.455 3252.043 4025.57786 3252.043 4025.32899 3252.07104 4025.11394 3252.14629 4024.92102 3252.26751 4024.75991 3252.42862 4024.63869 3252.62154 4024.56344 3252.83659 4024.5354 3253.08546 4024.5354 3254.14175 4028.455 3254.14175 Z M 4038.13134 3259.398 L 4038.38021 3259.36996 4038.59526 3259.29471 4038.78818 3259.17349 4038.94929 3259.01238 4039.07051 3258.81946 4039.14576 3258.60441 4039.1738 3258.35554 4039.1738 3257.29925 4035.2542 3257.29925 4035.2542 3259.398 4038.13134 3259.398 Z M 4078.92618 3248.85795 L 4078.92618 3250.66143 4082.12235 3250.66143 4082.12235 3249.90041 4082.09431 3249.65154 4082.01906 3249.43649 4081.89784 3249.24357 4081.73673 3249.08246 4081.54381 3248.96124 4081.32876 3248.88599 4081.07989 3248.85795 4078.92618 3248.85795 Z M 4073.57383 3255.03185 L 4073.57383 3253.22838 4070.37765 3253.22838 4070.37765 3253.98939 4070.40569 3254.23826 4070.48094 3254.45331 4070.60216 3254.64623 4070.76327 3254.80734 4070.95619 3254.92856 4071.17124 3255.00381 4071.42011 3255.03185 4073.57383 3255.03185 Z M 4070.37765 3249.90041 L 4070.37765 3250.66143 4073.57383 3250.66143 4073.57383 3248.85795 4071.42011 3248.85795 4071.17124 3248.88599 4070.95619 3248.96124 4070.76327 3249.08246 4070.60216 3249.24357 4070.48094 3249.43649 4070.40569 3249.65154 4070.37765 3249.90041 Z M 4081.07989 3255.03185 L 4081.32876 3255.00381 4081.54381 3254.92856 4081.73673 3254.80734 4081.89784 3254.64623 4082.01906 3254.45331 4082.09431 3254.23826 4082.12235 3253.98939 4082.12235 3253.22838 4078.92618 3253.22838 4078.92618 3255.03185 4081.07989 3255.03185 Z M 4065.6775 3251.4251 L 4065.6775 3250.30976 4065.64946 3250.06089 4065.57421 3249.84584 4065.45299 3249.65292 4065.29188 3249.49181 4065.09896 3249.37059 4064.88391 3249.29534 4064.63504 3249.2673 4063.57875 3249.2673 4063.57875 3251.4251 4065.6775 3251.4251 Z M 4088.2327 3283.92125 L 4088.2327 3282.86496 4088.20466 3282.61609 4088.12941 3282.40104 4088.00819 3282.20812 4087.84708 3282.04701 4087.65416 3281.92579 4087.43911 3281.85054 4087.19024 3281.8225 4086.0749 3281.8225 4086.0749 3283.92125 4088.2327 3283.92125 Z M 4060.42125 3251.4251 L 4060.42125 3249.2673 4059.36496 3249.2673 4059.11609 3249.29534 4058.90104 3249.37059 4058.70812 3249.49181 4058.54701 3249.65292 4058.42579 3249.84584 4058.35054 3250.06089 4058.3225 3250.30976 4058.3225 3251.4251 4060.42125 3251.4251 Z M 4112.74208 3259.71308 L 4112.74208 3257.72323 4110.74837 3257.72323 4111.00652 3258.1816 4111.34111 3258.62992 4111.73029 3259.03178 4112.16765 3259.38057 4112.64603 3259.67056 4112.74208 3259.71308 Z M 4112.74208 3253.87678 L 4112.74208 3251.88692 4112.64603 3251.92944 4112.16765 3252.21943 4111.73029 3252.56822 4111.34111 3252.97008 4111.00652 3253.4184 4110.74837 3253.87678 4112.74208 3253.87678 Z M 4116.58852 3259.71055 L 4116.92841 3259.53323 4117.38722 3259.21318 4117.80134 3258.83709 4118.16397 3258.41113 4118.46915 3257.94229 4118.57465 3257.72323 4116.58852 3257.72323 4116.58852 3259.71055 Z M 4118.57465 3253.87678 L 4118.46915 3253.65771 4118.16397 3253.18887 4117.80134 3252.76291 4117.38722 3252.38682 4116.92841 3252.06677 4116.58852 3251.88945 4116.58852 3253.87678 4118.57465 3253.87678 Z " stroke-width="0" layerid="1" attachedcopperid="gge1359" c_shapetype="line" id="gge1359_0" class=""></path><polyline points="4062 3287.66 4065.17 3290.83 4107.19 3290.83 4114.67 3283.36" stroke-width="4"  stroke-linecap="round" fill="none" layerid="1" net="VCC" id="gge1377" locked="0" /><polyline points="4076.25 3251.95 4078.2 3250 4104.5 3250 4110.3 3255.8 4114.67 3255.8" stroke-width="4"  stroke-linecap="round" fill="none" layerid="1" net="GND" id="gge1344" locked="0" /><polyline points="4046.28 3274.5 4045.22 3273.44 4031.85 3273.44" stroke-width="4"  stroke-linecap="round" fill="none" layerid="1" net="DN" id="gge1332" locked="0" /><polyline points="4046.28 3264.5 4045.22 3265.56 4031.85 3265.56" stroke-width="4"  stroke-linecap="round" fill="none" layerid="1" net="DP" id="gge1329" locked="0" /><polyline points="4062 3287.66 4036.24 3287.66 4031.85 3283.28" stroke-width="4"  stroke-linecap="round" fill="none" layerid="1" net="VCC" id="gge1287" locked="0" /><polyline points="4062 3253.06 4034.51 3253.06 4031.85 3255.72" stroke-width="4"  stroke-linecap="round" fill="none" layerid="1" net="GND" id="gge1284" locked="0" /><polyline points="4076.25 3261 4062 3260.94" stroke-width="2"  stroke-linecap="round" fill="none" layerid="1" net="+5V" id="gge1266" locked="0" /><polyline points="4076.56 3285.5 4076.25 3285.19 4076.25 3270.05" stroke-width="2"  stroke-linecap="round" fill="none" layerid="1" net="C1_1" id="gge1263" locked="0" /><polyline points="4076.25 3270.05 4075.97 3270.34 4062 3270.34" stroke-width="2"  stroke-linecap="round" fill="none" layerid="1" net="C1_1" id="gge1260" locked="0" /><g c_partid="part_pad" c_etype="pinpart" c_origin="4084.437,3285.5" layerid="1" number="2" net="GND" plated ="Y"  id="gge75" locked="0" c_rotation="0" c_width="5.5512" c_height="5.315" title="GND" c_shape="RECT" pasteexpansion="-393.7008" solderexpansion="0.2000"><polygon  c_etype="pad_shell" points="4081.6615 3288.1575 4081.6615 3282.8425 4087.2127 3282.8425 4087.2127 3288.1575" layerid="1" stroke-width="0" /><circle c_etype="pad_hole" cx="4084.4371" cy="3285.5" r="0" layerid="1" stroke-width="0"/></g><g c_partid="part_pad" c_etype="pinpart" c_origin="4076.563,3285.5" layerid="1" number="1" net="C1_1" plated ="Y"  id="gge87" locked="0" c_rotation="0" c_width="5.5512" c_height="5.315" title="C1_1" c_shape="RECT" pasteexpansion="-393.7008" solderexpansion="0.2000"><polygon  c_etype="pad_shell" points="4079.3385 3288.1575 4079.3385 3282.8425 4073.7873 3282.8425 4073.7873 3288.1575" layerid="1" stroke-width="0" /><circle c_etype="pad_hole" cx="4076.5629" cy="3285.5" r="0" layerid="1" stroke-width="0"/></g><g c_partid="part_pad" c_etype="pinpart" c_origin="4062,3253.063" layerid="1" number="2" net="GND" plated ="Y"  id="gge171" locked="0" c_rotation="90" c_width="5.5512" c_height="5.315" title="GND" c_shape="RECT" pasteexpansion="-393.7008" solderexpansion="0.2000"><polygon  c_etype="pad_shell" points="4064.6575 3255.8385 4059.3425 3255.8385 4059.3425 3250.2873 4064.6575 3250.2873" layerid="1" stroke-width="0" /><circle c_etype="pad_hole" cx="4062" cy="3253.0629" r="0" layerid="1" stroke-width="0"/></g><g c_partid="part_pad" c_etype="pinpart" c_origin="4062,3260.937" layerid="1" number="1" net="+5V" plated ="Y"  id="gge183" locked="0" c_rotation="90" c_width="5.5512" c_height="5.315" title="+5V" c_shape="RECT" pasteexpansion="-393.7008" solderexpansion="0.2000"><polygon  c_etype="pad_shell" points="4064.6575 3258.1615 4059.3425 3258.1615 4059.3425 3263.7127 4064.6575 3263.7127" layerid="1" stroke-width="0" /><circle c_etype="pad_hole" cx="4062" cy="3260.9371" r="0" layerid="1" stroke-width="0"/></g><g c_partid="part_pad" c_etype="pinpart" c_origin="4062,3287.661" layerid="1" number="2" net="VCC" plated ="Y"  id="gge261" locked="0" c_rotation="90" c_width="7.874" c_height="7.874" title="VCC" c_shape="RECT" pasteexpansion="0.0000" solderexpansion="0.2000"><polygon  c_etype="pad_shell" points="4058.063 3291.5984 4058.063 3283.7244 4065.937 3283.7244 4065.937 3291.5984" layerid="1" stroke-width="0" /><circle c_etype="pad_hole" cx="4062" cy="3287.6617" r="0" layerid="1" stroke-width="0"/></g><g c_partid="part_pad" c_etype="pinpart" c_origin="4062,3270.339" layerid="1" number="1" net="C1_1" plated ="Y"  id="gge276" locked="0" c_rotation="90" c_width="7.874" c_height="7.874" title="C1_1" c_shape="RECT" pasteexpansion="0.0000" solderexpansion="0.2000"><polygon  c_etype="pad_shell" points="4058.063 3274.2756 4058.063 3266.4016 4065.937 3266.4016 4065.937 3274.2756" layerid="1" stroke-width="0" /><circle c_etype="pad_hole" cx="4062" cy="3270.3383" r="0" layerid="1" stroke-width="0"/></g><g c_partid="part_pad" c_etype="pinpart" c_origin="4076.25,3251.945" layerid="1" number="1" net="GND" plated ="Y"  id="gge627" locked="0" c_rotation="180" c_width="9.7047" c_height="4.1339" title="GND" c_shape="RECT" pasteexpansion="0.0000" solderexpansion="0.2000"><polygon  c_etype="pad_shell" points="4071.3976 3249.878 4071.3976 3254.0118 4081.1024 3254.0118 4081.1024 3249.878" layerid="1" stroke-width="0" /><circle c_etype="pad_hole" cx="4076.25" cy="3251.9449" r="0" layerid="1" stroke-width="0"/></g><g c_partid="part_pad" c_etype="pinpart" c_origin="4076.25,3261" layerid="1" number="2" net="+5V" plated ="Y"  id="gge642" locked="0" c_rotation="180" c_width="9.7047" c_height="4.1339" title="+5V" c_shape="RECT" pasteexpansion="0.0000" solderexpansion="0.2000"><polygon  c_etype="pad_shell" points="4071.3976 3258.9331 4071.3976 3263.0669 4081.1024 3263.0669 4081.1024 3258.9331" layerid="1" stroke-width="0" /><circle c_etype="pad_hole" cx="4076.25" cy="3261" r="0" layerid="1" stroke-width="0"/></g><g c_partid="part_pad" c_etype="pinpart" c_origin="4076.25,3270.055" layerid="1" number="3" net="C1_1" plated ="Y"  id="gge657" locked="0" c_rotation="180" c_width="9.7047" c_height="4.1339" title="C1_1" c_shape="RECT" pasteexpansion="0.0000" solderexpansion="0.2000"><polygon  c_etype="pad_shell" points="4071.3976 3267.9882 4071.3976 3272.122 4081.1024 3272.122 4081.1024 3267.9882" layerid="1" stroke-width="0" /><circle c_etype="pad_hole" cx="4076.25" cy="3270.0551" r="0" layerid="1" stroke-width="0"/></g><g c_partid="part_pad" c_etype="pinpart" c_origin="4098.75,3261" layerid="1" number="4" net="" plated ="Y"  id="gge672" locked="0" c_rotation="180" c_width="9.7047" c_height="13.937" title="" c_shape="RECT" pasteexpansion="0.0000" solderexpansion="0.2000"><polygon  c_etype="pad_shell" points="4093.8976 3267.9685 4093.8976 3254.0315 4103.6024 3254.0315 4103.6024 3267.9685" layerid="1" stroke-width="0" /><circle c_etype="pad_hole" cx="4098.75" cy="3261" r="0" layerid="1" stroke-width="0"/></g><g c_partid="part_pad" c_etype="pinpart" c_origin="4031.8545,3283.28" layerid="1" number="1" net="VCC" plated ="Y"  id="gge1008" locked="0" c_rotation="270" c_width="5.315" c_height="12.5984" title="VCC" c_shape="RECT" pasteexpansion="-393.7008" solderexpansion="0.2"><polygon  c_etype="pad_shell" points="4038.1538 3280.6225 4038.1538 3285.9375 4025.5554 3285.9375 4025.5554 3280.6225" layerid="1" stroke-width="0" /><circle c_etype="pad_hole" cx="4031.8546" cy="3283.2795" r="0" layerid="1" stroke-width="0"/></g><g c_partid="part_pad" c_etype="pinpart" c_origin="4031.8545,3273.437" layerid="1" number="2" net="DN" plated ="Y"  id="gge1020" locked="0" c_rotation="270" c_width="5.315" c_height="12.5984" title="DN" c_shape="RECT" pasteexpansion="-393.7008" solderexpansion="0.2"><polygon  c_etype="pad_shell" points="4038.1538 3270.7795 4038.1538 3276.0945 4025.5554 3276.0945 4025.5554 3270.7795" layerid="1" stroke-width="0" /><circle c_etype="pad_hole" cx="4031.8546" cy="3273.437" r="0" layerid="1" stroke-width="0"/></g><g c_partid="part_pad" c_etype="pinpart" c_origin="4031.8545,3265.563" layerid="1" number="3" net="DP" plated ="Y"  id="gge1032" locked="0" c_rotation="270" c_width="5.315" c_height="12.5984" title="DP" c_shape="RECT" pasteexpansion="-393.7008" solderexpansion="0.2"><polygon  c_etype="pad_shell" points="4038.1538 3262.9055 4038.1538 3268.2205 4025.5554 3268.2205 4025.5554 3262.9055" layerid="1" stroke-width="0" /><circle c_etype="pad_hole" cx="4031.8546" cy="3265.563" r="0" layerid="1" stroke-width="0"/></g><g c_partid="part_pad" c_etype="pinpart" c_origin="4031.8545,3255.721" layerid="1" number="4" net="GND" plated ="Y"  id="gge1044" locked="0" c_rotation="270" c_width="5.315" c_height="12.5984" title="GND" c_shape="RECT" pasteexpansion="-393.7008" solderexpansion="0.2"><polygon  c_etype="pad_shell" points="4038.1538 3253.0635 4038.1538 3258.3785 4025.5554 3258.3785 4025.5554 3253.0635" layerid="1" stroke-width="0" /><circle c_etype="pad_hole" cx="4031.8546" cy="3255.7205" r="0" layerid="1" stroke-width="0"/></g><path d="M4112.45206,3258.30989L4112.45206,3253.29021L4110.2998,3253.80005L4110.2998,3257.80005Z" stroke-width="0"   net="GND" type="solid" layerid="1" id="gge1380" locked="0" c_teardrop="1" c_targetpad="gge777" c_targetwire="gge1344" /><path d="M4111.32565,3283.15043L4114.87498,3286.7L4112.85802,3287.99583L4110.02969,3285.16731Z" stroke-width="0"   net="VCC" type="solid" layerid="1" id="gge1389" locked="0" c_teardrop="1" c_targetpad="gge822" c_targetwire="gge1377" /><path d="M4078.75,3282.84253L4073.78735,3282.84253L4075.25,3279.84253L4077.25,3279.84253Z" stroke-width="0"   net="C1_1" type="solid" layerid="1" id="gge1392" locked="0" c_teardrop="1" c_targetpad="gge87" c_targetwire="gge1263" /><path d="M4059.34253,3255.83838L4059.34253,3250.28735L4053.34253,3251.06299L4053.34253,3255.06299Z" stroke-width="0"   net="GND" type="solid" layerid="1" id="gge1395" locked="0" c_teardrop="1" c_targetpad="gge171" c_targetwire="gge1284" /><path d="M4064.65747,3263.44876L4064.65747,3258.44876L4067.65747,3259.96201L4067.65747,3261.96203Z" stroke-width="0"   net="+5V" type="solid" layerid="1" id="gge1398" locked="0" c_teardrop="1" c_targetpad="gge183" c_targetwire="gge1266" /><path d="M4058.06299,3291.59839L4058.06299,3283.72437L4052.06299,3285.66117L4052.06299,3289.66117Z" stroke-width="0"   net="VCC" type="solid" layerid="1" id="gge1401" locked="0" c_teardrop="1" c_targetpad="gge261" c_targetwire="gge1287" /><path d="M4065.93701,3267.83911L4065.93701,3272.83911L4068.93701,3271.33911L4068.93701,3269.33911Z" stroke-width="0"   net="C1_1" type="solid" layerid="1" id="gge1404" locked="0" c_teardrop="1" c_targetpad="gge276" c_targetwire="gge1260" /><path d="M4071.39771,3258.93311L4071.39771,3263.06689L4068.39771,3261.9653L4068.39771,3259.96528Z" stroke-width="0"   net="+5V" type="solid" layerid="1" id="gge1407" locked="0" c_teardrop="1" c_targetpad="gge642" c_targetwire="gge1266" /><path d="M4073.75,3272.12207L4078.75,3272.12207L4077.25,3275.12207L4075.25,3275.12207Z" stroke-width="0"   net="C1_1" type="solid" layerid="1" id="gge1410" locked="0" c_teardrop="1" c_targetpad="gge657" c_targetwire="gge1263" /><path d="M4071.39771,3267.98828L4071.39771,3272.12207L4068.39771,3271.33911L4068.39771,3269.33911Z" stroke-width="0"   net="C1_1" type="solid" layerid="1" id="gge1413" locked="0" c_teardrop="1" c_targetpad="gge657" c_targetwire="gge1260" /><path d="M4038.15381,3285.9375L4029.51211,3285.9375L4033.40782,3287.66162L4037.6505,3286.24737Z" stroke-width="0"   net="VCC" type="solid" layerid="1" id="gge1416" locked="0" c_teardrop="1" c_targetpad="gge1008" c_targetwire="gge1287" /><path d="M4038.15381,3270.77954L4038.15381,3276.09448L4044.15381,3275.43701L4044.15381,3271.43701Z" stroke-width="0"   net="DN" type="solid" layerid="1" id="gge1419" locked="0" c_teardrop="1" c_targetpad="gge1020" c_targetwire="gge1332" /><path d="M4038.15381,3262.90552L4038.15381,3268.22046L4044.15381,3267.56299L4044.15381,3263.56299Z" stroke-width="0"   net="DP" type="solid" layerid="1" id="gge1422" locked="0" c_teardrop="1" c_targetpad="gge1032" c_targetwire="gge1329" /><path d="M 4035.92666 3254.4772 L 4031.68549 3253.06348 4038.15381 3253.06348 4035.92666 3254.4772 Z " stroke-width="0"   net="GND" type="solid" layerid="1" id="gge1425" locked="0" c_teardrop="1" c_targetpad="gge1044" c_targetwire="gge1284" /><g c_partid="part_pad" c_etype="pinpart" c_origin="4114.6653,3255.8" layerid="11" number="4" net="GND" plated ="Y"  id="gge777" locked="0" c_rotation="0" c_width="6.6929" c_height="6.6929" title="GND" c_shape="ELLIPSE" pasteexpansion="0" solderexpansion="0.2"><ellipse c_etype="pad_shell" cx="4114.6653" cy="3255.8" rx="3.34645" ry="3.34645" layerid="11" stroke-width="0"/><circle c_etype="pad_hole" cx="4114.6653" cy="3255.8" r="2.1654" layerid="11" stroke-width="0"/></g><g c_partid="part_pad" c_etype="pinpart" c_origin="4114.6653,3265.64" layerid="11" number="3" net="DP" plated ="Y"  id="gge792" locked="0" c_rotation="0" c_width="6.6929" c_height="6.6929" title="DP" c_shape="ELLIPSE" pasteexpansion="0" solderexpansion="0.2"><ellipse c_etype="pad_shell" cx="4114.6653" cy="3265.64" rx="3.34645" ry="3.34645" layerid="11" stroke-width="0"/><circle c_etype="pad_hole" cx="4114.6653" cy="3265.64" r="2.1654" layerid="11" stroke-width="0"/></g><g c_partid="part_pad" c_etype="pinpart" c_origin="4114.6653,3273.51" layerid="11" number="2" net="DN" plated ="Y"  id="gge807" locked="0" c_rotation="0" c_width="6.6929" c_height="6.6929" title="DN" c_shape="ELLIPSE" pasteexpansion="0" solderexpansion="0.2"><ellipse c_etype="pad_shell" cx="4114.6653" cy="3273.51" rx="3.34645" ry="3.34645" layerid="11" stroke-width="0"/><circle c_etype="pad_hole" cx="4114.6653" cy="3273.51" r="2.1654" layerid="11" stroke-width="0"/></g><g c_partid="part_pad" c_etype="pinpart" c_origin="4114.6653,3283.36" layerid="11" number="1" net="VCC" plated ="Y"  id="gge822" locked="0" c_rotation="0" c_width="6.6929" c_height="6.6929" title="VCC" c_shape="ELLIPSE" pasteexpansion="0" solderexpansion="0.2"><ellipse c_etype="pad_shell" cx="4114.6653" cy="3283.36" rx="3.34645" ry="3.34645" layerid="11" stroke-width="0"/><circle c_etype="pad_hole" cx="4114.6653" cy="3283.36" r="2.1654" layerid="11" stroke-width="0"/></g><g c_partid="part_pad" c_etype="pinpart" c_origin="4125.3343,3295.366" layerid="11" number="5" net="GND" plated ="Y"  id="gge837" locked="0" c_rotation="180" c_width="12.5984" c_height="12.5984" title="GND" c_shape="ELLIPSE" pasteexpansion="0" solderexpansion="0.2"><ellipse c_etype="pad_shell" cx="4125.3343" cy="3295.366" rx="6.2992" ry="6.2992" layerid="11" stroke-width="0"/><circle c_etype="pad_hole" cx="4125.3342" cy="3295.3661" r="4.5276" layerid="11" stroke-width="0"/></g><g c_partid="part_pad" c_etype="pinpart" c_origin="4125.3343,3243.634" layerid="11" number="5" net="GND" plated ="Y"  id="gge852" locked="0" c_rotation="180" c_width="12.5984" c_height="12.5984" title="GND" c_shape="ELLIPSE" pasteexpansion="0" solderexpansion="0.2"><ellipse c_etype="pad_shell" cx="4125.3343" cy="3243.634" rx="6.2992" ry="6.2992" layerid="11" stroke-width="0"/><circle c_etype="pad_hole" cx="4125.3342" cy="3243.6339" r="4.5276" layerid="11" stroke-width="0"/></g><g c_partid="part_pad" c_etype="pinpart" c_origin="4021.1455,3246.862" layerid="11" number="5" net="GND" plated ="Y"  id="gge1056" locked="0" c_rotation="270" c_width="5.9055" c_height="13.7795" title="GND" c_shape="OVAL" pasteexpansion="0" solderexpansion="0.2"><polyline  c_etype="pad_shell" points="4025.0825 3246.862 4017.2085 3246.862" layerid="11" stroke-width="5.9055" /><polyline c_etype="pad_hole" points="4017.7995 3246.8622 4024.4923 3246.8622" layerid="11" stroke-width="3.5434"></polyline></g><g c_partid="part_pad" c_etype="pinpart" c_origin="4021.1455,3292.138" layerid="11" number="5" net="GND" plated ="Y"  id="gge1071" locked="0" c_rotation="270" c_width="5.9055" c_height="13.7795" title="GND" c_shape="OVAL" pasteexpansion="0" solderexpansion="0.2"><polyline  c_etype="pad_shell" points="4025.0825 3292.138 4017.2085 3292.138" layerid="11" stroke-width="5.9055" /><polyline c_etype="pad_hole" points="4017.7995 3292.1378 4024.4923 3292.1378" layerid="11" stroke-width="3.5434"></polyline></g><g c_partid="part_via" c_etype="pinpart" c_shapetype="group" net="DP" c_origin="4046.2835,3264.5" layerid="11" id="gge1302" locked="0" solderexpansion=""><circle cx="4046.2835" cy="3264.5" r="1.2205" stroke-width="0" c_etype="pad_shell"/><circle cx="4046.2835" cy="3264.5" r="0.6102"  stroke-width="0" c_etype="pad_hole"/></g><g c_partid="part_via" c_etype="pinpart" c_shapetype="group" net="DN" c_origin="4046.2835,3274.5" layerid="11" id="gge1314" locked="0" solderexpansion=""><circle cx="4046.2835" cy="3274.5" r="1.2205" stroke-width="0" c_etype="pad_shell"/><circle cx="4046.2835" cy="3274.5" r="0.6102"  stroke-width="0" c_etype="pad_hole"/></g><g c_partid="part_hole" c_etype="pinpart" c_shapetype="group" c_origin="4021.1455,3260.445" layerid="11" id="gge978" locked="0" ><circle cx="4021.1455" cy="3260.445" r="2.5591"  stroke-width="1" fill-opacity="0" /></g><g c_partid="part_hole" c_etype="pinpart" c_shapetype="group" c_origin="4021.1455,3278.555" layerid="11" id="gge990" locked="0" ><circle cx="4021.1455" cy="3278.555" r="2.5591"  stroke-width="1" fill-opacity="0" /></g><polyline points="4087.6307 3281.9425 4082.0795 3281.9425" stroke-width="0.6"  stroke-linecap="round" fill="none" layerid="3" net="" id="gge33" locked="0" /><polyline points="4082.0795 3289.0575 4087.6307 3289.0575" stroke-width="0.6"  stroke-linecap="round" fill="none" layerid="3" net="" id="gge36" locked="0" /><polyline points="4088.2307 3288.4575 4088.2307 3282.5425" stroke-width="0.6"  stroke-linecap="round" fill="none" layerid="3" net="" id="gge39" locked="0" /><polyline points="4073.3693 3281.9425 4078.9205 3281.9425" stroke-width="0.6"  stroke-linecap="round" fill="none" layerid="3" net="" id="gge42" locked="0" /><polyline points="4078.9205 3289.0575 4073.3693 3289.0575" stroke-width="0.6"  stroke-linecap="round" fill="none" layerid="3" net="" id="gge45" locked="0" /><polyline points="4072.7693 3288.4575 4072.7693 3282.5425" stroke-width="0.6"  stroke-linecap="round" fill="none" layerid="3" net="" id="gge48" locked="0" /><polyline points="4058.4425 3249.8693 4058.4425 3255.4205" stroke-width="0.6"  stroke-linecap="round" fill="none" layerid="3" net="" id="gge129" locked="0" /><polyline points="4065.5575 3255.4205 4065.5575 3249.8693" stroke-width="0.6"  stroke-linecap="round" fill="none" layerid="3" net="" id="gge132" locked="0" /><polyline points="4064.9575 3249.2693 4059.0425 3249.2693" stroke-width="0.6"  stroke-linecap="round" fill="none" layerid="3" net="" id="gge135" locked="0" /><polyline points="4058.4425 3264.1307 4058.4425 3258.5795" stroke-width="0.6"  stroke-linecap="round" fill="none" layerid="3" net="" id="gge138" locked="0" /><polyline points="4065.5575 3258.5795 4065.5575 3264.1307" stroke-width="0.6"  stroke-linecap="round" fill="none" layerid="3" net="" id="gge141" locked="0" /><polyline points="4064.9575 3264.7307 4059.0425 3264.7307" stroke-width="0.6"  stroke-linecap="round" fill="none" layerid="3" net="" id="gge144" locked="0" /><polyline points="4067.615 3275.52 4056.385 3275.52" stroke-width="0.6"  stroke-linecap="round" fill="none" layerid="3" net="" id="gge225" locked="0" /><polyline points="4067.615 3268.7788 4067.615 3289.2212" stroke-width="0.6"  stroke-linecap="round" fill="none" layerid="3" net="" id="gge228" locked="0" /><polyline points="4057.3716 3289.2098 4056.4298 3289.2361" stroke-width="0.6"  stroke-linecap="round" fill="none" layerid="3" net="" id="gge231" locked="0" /><polyline points="4067.615 3289.2212 4066.6732 3289.2475" stroke-width="0.6"  stroke-linecap="round" fill="none" layerid="3" net="" id="gge234" locked="0" /><polyline points="4056.385 3268.7788 4056.385 3289.2212" stroke-width="0.6"  stroke-linecap="round" fill="none" layerid="3" net="" id="gge237" locked="0" /><polyline points="4092.9976 3247.6094 4092.9976 3274.3906 4082.0024 3274.3906 4082.0024 3247.6094 4092.9976 3247.6094" stroke-width="0.6"  stroke-linecap="round" fill="none" layerid="3" net="" id="gge594" locked="0" /><polyline points="4149.0763 3291.584 4149.0763 3282.686" stroke-width="1"  stroke-linecap="round" fill="none" layerid="3" net="" id="gge705" locked="0" /><polyline points="4153.7623 3255.209 4153.7623 3247.217" stroke-width="1"  stroke-linecap="round" fill="none" layerid="3" net="" id="gge708" locked="0" /><polyline points="4148.9983 3255.76 4148.9983 3246.862" stroke-width="1"  stroke-linecap="round" fill="none" layerid="3" net="" id="gge711" locked="0" /><polyline points="4138.5393 3280.096 4161.1493 3281.474 4161.1053 3292.825 4138.5263 3294.774 4138.5413 3292.771 4156.4163 3290.762 4159.0863 3290.466 4159.0443 3283.577 4140.2323 3281.711 4138.5393 3281.593 4138.5393 3280.096" stroke-width="1"  stroke-linecap="round" fill="none" layerid="3" net="" id="gge714" locked="0" /><polyline points="4141.0843 3269.54 4149.0373 3269.54 4149.0373 3265.918 4157.3833 3265.918 4157.3833 3269.54 4165.3753 3269.54" stroke-width="1"  stroke-linecap="round" fill="none" layerid="3" net="" id="gge717" locked="0" /><polyline points="4138.3283 3244.264 4160.9383 3245.642 4160.8943 3256.993 4138.3153 3258.942 4138.3303 3256.939 4156.2053 3254.93 4158.8753 3254.634 4158.8333 3247.745 4140.0213 3245.879 4138.3283 3245.761 4138.3283 3244.264" stroke-width="1"  stroke-linecap="round" fill="none" layerid="3" net="" id="gge720" locked="0" /><polyline points="4132.7773 3241.194 4132.7773 3261.666 4141.2023 3261.666 4141.2023 3276.548 4132.8563 3276.548 4132.8563 3297.808" stroke-width="1"  stroke-linecap="round" fill="none" layerid="3" net="" id="gge723" locked="0" /><polyline points="4165.8858 3297.843 4165.8858 3241.151" stroke-width="1"  stroke-linecap="round" fill="none" layerid="3" net="" id="gge726" locked="0" /><polyline points="4153.8403 3291.033 4153.8403 3283.041" stroke-width="1"  stroke-linecap="round" fill="none" layerid="3" net="" id="gge729" locked="0" /><polyline points="4110.3133 3297.843 4118.4088 3297.843" stroke-width="1"  stroke-linecap="round" fill="none" layerid="3" net="" id="gge732" locked="0" /><polyline points="4132.7418 3297.843 4165.8858 3297.843" stroke-width="1"  stroke-linecap="round" fill="none" layerid="3" net="" id="gge735" locked="0" /><polyline points="4110.3133 3241.151 4118.4095 3241.151" stroke-width="1"  stroke-linecap="round" fill="none" layerid="3" net="" id="gge738" locked="0" /><polyline points="4132.7411 3241.151 4165.8858 3241.151" stroke-width="1"  stroke-linecap="round" fill="none" layerid="3" net="" id="gge741" locked="0" /><polyline points="4110.3133 3297.843 4110.3133 3241.151" stroke-width="1"  stroke-linecap="round" fill="none" layerid="3" net="" id="gge744" locked="0" /><polyline points="4029.4095 3246 4028.8476 3246" stroke-width="1"  stroke-linecap="round" fill="none" layerid="3" net="" id="gge927" locked="0" /><polyline points="4029.4095 3286.8475 4029.4095 3293 4028.9095 3293" stroke-width="1"  stroke-linecap="round" fill="none" layerid="3" net="" id="gge930" locked="0" /><polyline points="4029.4095 3277.0045 4029.4095 3279.7125" stroke-width="1"  stroke-linecap="round" fill="none" layerid="3" net="" id="gge933" locked="0" /><polyline points="4029.4095 3269.1305 4029.4095 3269.8695" stroke-width="1"  stroke-linecap="round" fill="none" layerid="3" net="" id="gge936" locked="0" /><polyline points="4029.4095 3259.2885 4029.4095 3261.9955" stroke-width="1"  stroke-linecap="round" fill="none" layerid="3" net="" id="gge939" locked="0" /><polyline points="4029.4095 3246 4029.4095 3252.1535" stroke-width="1"  stroke-linecap="round" fill="none" layerid="3" net="" id="gge942" locked="0" /><polyline points="4009.3349 3293.122 4013.474 3293.122" stroke-width="1"  stroke-linecap="round" fill="none" layerid="3" net="" id="gge945" locked="0" /><polyline points="4009.3349 3245.878 4013.474 3245.878" stroke-width="1"  stroke-linecap="round" fill="none" layerid="3" net="" id="gge948" locked="0" /><polyline points="4009.3349 3293.122 3951.4097 3293.122 3951.4097 3245.878" stroke-width="1"  stroke-linecap="round" fill="none" layerid="3" net="" id="gge951" locked="0" /><polyline points="4009.3349 3245.878 3951.4097 3245.878" stroke-width="1"  stroke-linecap="round" fill="none" layerid="3" net="" id="gge954" locked="0" /><polyline points="4009.3349 3293.122 4009.3349 3245.878" stroke-width="1"  stroke-linecap="round" fill="none" layerid="3" net="" id="gge957" locked="0" /><g c_partid="part_pcbtext" c_etype="" c_origin="4080.5,3273.5" c_rotation="0" c_mirror="" id="gge9" locked="0" layerid="3" c_shapetype="group" display="none"><path c_fontsize="4.5" c_fontfamily="" c_text="10uF" d="M 4080.5 3269.78 L 4080.91 3269.57 L 4081.52 3268.96 L 4081.52 3273.25 M 4084.1 3268.96 L 4083.49 3269.16 L 4083.08 3269.78 L 4082.87 3270.8 L 4082.87 3271.41 L 4083.08 3272.44 L 4083.49 3273.05 L 4084.1 3273.25 L 4084.51 3273.25 L 4085.12 3273.05 L 4085.53 3272.44 L 4085.74 3271.41 L 4085.74 3270.8 L 4085.53 3269.78 L 4085.12 3269.16 L 4084.51 3268.96 L 4084.1 3268.96 M 4087.09 3270.39 L 4087.09 3272.44 L 4087.29 3273.05 L 4087.7 3273.25 L 4088.31 3273.25 L 4088.72 3273.05 L 4089.34 3272.44 M 4089.34 3270.39 L 4089.34 3273.25 M 4090.69 3268.96 L 4090.69 3273.25 M 4090.69 3268.96 L 4093.35 3268.96 M 4090.69 3271 L 4092.32 3271" fill="none"  stroke-width="0.6" c_note="note_name" /></g><g c_partid="part_pcbtext" c_etype="" c_origin="4080.5,3280.5" c_rotation="0" c_mirror="" id="gge15" locked="0" layerid="3" c_shapetype="group" ><path c_fontsize="4.5" c_fontfamily="" c_text="C1" d="M 4083.57 3276.98 L 4083.36 3276.57 L 4082.95 3276.16 L 4082.55 3275.96 L 4081.73 3275.96 L 4081.32 3276.16 L 4080.91 3276.57 L 4080.7 3276.98 L 4080.5 3277.6 L 4080.5 3278.62 L 4080.7 3279.23 L 4080.91 3279.64 L 4081.32 3280.05 L 4081.73 3280.25 L 4082.55 3280.25 L 4082.95 3280.05 L 4083.36 3279.64 L 4083.57 3279.23 M 4084.92 3276.78 L 4085.33 3276.57 L 4085.94 3275.96 L 4085.94 3280.25" fill="none"  stroke-width="0.6" c_note="note_pre" /></g><g c_partid="part_pcbtext" c_etype="" c_origin="4050,3257" c_rotation="90" c_mirror="" id="gge105" locked="0" layerid="3" c_shapetype="group" display="none"><path c_fontsize="4.5" c_fontfamily="" c_text="22uF" d="M 4046.48 3256.8 L 4046.28 3256.8 L 4045.87 3256.59 L 4045.66 3256.39 L 4045.46 3255.98 L 4045.46 3255.16 L 4045.66 3254.75 L 4045.87 3254.55 L 4046.28 3254.34 L 4046.69 3254.34 L 4047.1 3254.55 L 4047.71 3254.95 L 4049.75 3257 L 4049.75 3254.14 M 4046.48 3252.58 L 4046.28 3252.58 L 4045.87 3252.38 L 4045.66 3252.17 L 4045.46 3251.76 L 4045.46 3250.95 L 4045.66 3250.54 L 4045.87 3250.33 L 4046.28 3250.13 L 4046.69 3250.13 L 4047.1 3250.33 L 4047.71 3250.74 L 4049.75 3252.79 L 4049.75 3249.92 M 4046.89 3248.57 L 4048.94 3248.57 L 4049.55 3248.37 L 4049.75 3247.96 L 4049.75 3247.35 L 4049.55 3246.94 L 4048.94 3246.32 M 4046.89 3246.32 L 4049.75 3246.32 M 4045.46 3244.97 L 4049.75 3244.97 M 4045.46 3244.97 L 4045.46 3242.31 M 4047.5 3244.97 L 4047.5 3243.34" fill="none"  stroke-width="0.6" c_note="note_name" /></g><g c_partid="part_pcbtext" c_etype="" c_origin="4057,3257" c_rotation="90" c_mirror="" id="gge111" locked="0" layerid="3" c_shapetype="group" ><path c_fontsize="4.5" c_fontfamily="" c_text="C2" d="M 4053.48 3253.93 L 4053.07 3254.14 L 4052.66 3254.55 L 4052.46 3254.95 L 4052.46 3255.77 L 4052.66 3256.18 L 4053.07 3256.59 L 4053.48 3256.8 L 4054.1 3257 L 4055.12 3257 L 4055.73 3256.8 L 4056.14 3256.59 L 4056.55 3256.18 L 4056.75 3255.77 L 4056.75 3254.95 L 4056.55 3254.55 L 4056.14 3254.14 L 4055.73 3253.93 M 4053.48 3252.38 L 4053.28 3252.38 L 4052.87 3252.17 L 4052.66 3251.97 L 4052.46 3251.56 L 4052.46 3250.74 L 4052.66 3250.33 L 4052.87 3250.13 L 4053.28 3249.92 L 4053.69 3249.92 L 4054.1 3250.13 L 4054.71 3250.54 L 4056.75 3252.58 L 4056.75 3249.72" fill="none"  stroke-width="0.6" c_note="note_pre" /></g><g c_partid="part_pcbtext" c_etype="" c_origin="4076,3279" c_rotation="270" c_mirror="" id="gge201" locked="0" layerid="3" c_shapetype="group" display="none"><path c_fontsize="4.5" c_fontfamily="" c_text="SS36" d="M 4079.93 3281.86 L 4080.34 3281.45 L 4080.54 3280.84 L 4080.54 3280.02 L 4080.34 3279.41 L 4079.93 3279 L 4079.52 3279 L 4079.11 3279.2 L 4078.9 3279.41 L 4078.7 3279.82 L 4078.29 3281.05 L 4078.09 3281.45 L 4077.88 3281.66 L 4077.47 3281.86 L 4076.86 3281.86 L 4076.45 3281.45 L 4076.25 3280.84 L 4076.25 3280.02 L 4076.45 3279.41 L 4076.86 3279 M 4079.93 3286.08 L 4080.34 3285.67 L 4080.54 3285.05 L 4080.54 3284.24 L 4080.34 3283.62 L 4079.93 3283.21 L 4079.52 3283.21 L 4079.11 3283.42 L 4078.9 3283.62 L 4078.7 3284.03 L 4078.29 3285.26 L 4078.09 3285.67 L 4077.88 3285.87 L 4077.47 3286.08 L 4076.86 3286.08 L 4076.45 3285.67 L 4076.25 3285.05 L 4076.25 3284.24 L 4076.45 3283.62 L 4076.86 3283.21 M 4080.54 3287.84 L 4080.54 3290.09 L 4078.9 3288.86 L 4078.9 3289.47 L 4078.7 3289.88 L 4078.5 3290.09 L 4077.88 3290.29 L 4077.47 3290.29 L 4076.86 3290.09 L 4076.45 3289.68 L 4076.25 3289.06 L 4076.25 3288.45 L 4076.45 3287.84 L 4076.65 3287.63 L 4077.06 3287.43 M 4079.93 3294.1 L 4080.34 3293.89 L 4080.54 3293.28 L 4080.54 3292.87 L 4080.34 3292.25 L 4079.72 3291.85 L 4078.7 3291.64 L 4077.68 3291.64 L 4076.86 3291.85 L 4076.45 3292.25 L 4076.25 3292.87 L 4076.25 3293.07 L 4076.45 3293.69 L 4076.86 3294.1 L 4077.47 3294.3 L 4077.68 3294.3 L 4078.29 3294.1 L 4078.7 3293.69 L 4078.9 3293.07 L 4078.9 3292.87 L 4078.7 3292.25 L 4078.29 3291.85 L 4077.68 3291.64" fill="none"  stroke-width="0.6" c_note="note_name" /></g><g c_partid="part_pcbtext" c_etype="" c_origin="4049.5,3268.5" c_rotation="270" c_mirror="" id="gge207" locked="0" layerid="3" c_shapetype="group" ><path c_fontsize="4.5" c_fontfamily="" c_text="D1" d="M 4054.04 3268.5 L 4049.75 3268.5 M 4054.04 3268.5 L 4054.04 3269.93 L 4053.84 3270.55 L 4053.43 3270.95 L 4053.02 3271.16 L 4052.4 3271.36 L 4051.38 3271.36 L 4050.77 3271.16 L 4050.36 3270.95 L 4049.95 3270.55 L 4049.75 3269.93 L 4049.75 3268.5 M 4053.22 3272.71 L 4053.43 3273.12 L 4054.04 3273.74 L 4049.75 3273.74" fill="none"  stroke-width="0.6" c_note="note_pre" /></g><g c_partid="part_pcbtext" c_etype="" c_origin="4087.5,3283" c_rotation="180" c_mirror="" id="gge573" locked="0" layerid="3" c_shapetype="group" display="none"><path c_fontsize="4.5" c_fontfamily="" c_text="AMS1117-5.0" d="M 4085.86 3287.54 L 4087.5 3283.25 M 4085.86 3287.54 L 4084.23 3283.25 M 4086.89 3284.68 L 4084.84 3284.68 M 4082.88 3287.54 L 4082.88 3283.25 M 4082.88 3287.54 L 4081.24 3283.25 M 4079.6 3287.54 L 4081.24 3283.25 M 4079.6 3287.54 L 4079.6 3283.25 M 4075.39 3286.93 L 4075.8 3287.34 L 4076.41 3287.54 L 4077.23 3287.54 L 4077.85 3287.34 L 4078.25 3286.93 L 4078.25 3286.52 L 4078.05 3286.11 L 4077.85 3285.9 L 4077.44 3285.7 L 4076.21 3285.29 L 4075.8 3285.09 L 4075.6 3284.88 L 4075.39 3284.47 L 4075.39 3283.86 L 4075.8 3283.45 L 4076.41 3283.25 L 4077.23 3283.25 L 4077.85 3283.45 L 4078.25 3283.86 M 4074.04 3286.72 L 4073.63 3286.93 L 4073.02 3287.54 L 4073.02 3283.25 M 4071.67 3286.72 L 4071.26 3286.93 L 4070.65 3287.54 L 4070.65 3283.25 M 4069.3 3286.72 L 4068.89 3286.93 L 4068.27 3287.54 L 4068.27 3283.25 M 4064.06 3287.54 L 4066.1 3283.25 M 4066.92 3287.54 L 4064.06 3287.54 M 4062.71 3285.09 L 4059.03 3285.09 M 4055.22 3287.54 L 4057.27 3287.54 L 4057.47 3285.7 L 4057.27 3285.9 L 4056.65 3286.11 L 4056.04 3286.11 L 4055.43 3285.9 L 4055.02 3285.5 L 4054.81 3284.88 L 4054.81 3284.47 L 4055.02 3283.86 L 4055.43 3283.45 L 4056.04 3283.25 L 4056.65 3283.25 L 4057.27 3283.45 L 4057.47 3283.65 L 4057.68 3284.06 M 4053.26 3284.27 L 4053.46 3284.06 L 4053.26 3283.86 L 4053.05 3284.06 L 4053.26 3284.27 M 4050.48 3287.54 L 4051.09 3287.34 L 4051.5 3286.72 L 4051.7 3285.7 L 4051.7 3285.09 L 4051.5 3284.06 L 4051.09 3283.45 L 4050.48 3283.25 L 4050.07 3283.25 L 4049.45 3283.45 L 4049.05 3284.06 L 4048.84 3285.09 L 4048.84 3285.7 L 4049.05 3286.72 L 4049.45 3287.34 L 4050.07 3287.54 L 4050.48 3287.54" fill="none"  stroke-width="0.6" c_note="note_name" /></g><g c_partid="part_pcbtext" c_etype="" c_origin="4090,3258.5" c_rotation="180" c_mirror="" id="gge579" locked="0" layerid="3" c_shapetype="group" ><path c_fontsize="4.5" c_fontfamily="" c_text="U1" d="M 4090 3263.04 L 4090 3259.97 L 4089.8 3259.36 L 4089.39 3258.95 L 4088.77 3258.75 L 4088.36 3258.75 L 4087.75 3258.95 L 4087.34 3259.36 L 4087.14 3259.97 L 4087.14 3263.04 M 4085.79 3262.22 L 4085.38 3262.43 L 4084.76 3263.04 L 4084.76 3258.75" fill="none"  stroke-width="0.6" c_note="note_pre" /></g><g c_partid="part_pcbtext" c_etype="" c_origin="4100.7853,3269.54" c_rotation="90" c_mirror="" id="gge693" locked="0" layerid="3" c_shapetype="group" display="none"><path c_fontsize="4.5" c_fontfamily="" c_text="AF 90 WJDG" d="M 4096.2453 3267.9 L 4100.5353 3269.54 M 4096.2453 3267.9 L 4100.5353 3266.27 M 4099.1053 3268.93 L 4099.1053 3266.88 M 4096.2453 3264.92 L 4100.5353 3264.92 M 4096.2453 3264.92 L 4096.2453 3262.26 M 4098.2853 3264.92 L 4098.2853 3263.28 M 4097.6753 3255.1 L 4098.2853 3255.3 L 4098.6953 3255.71 L 4098.9053 3256.33 L 4098.9053 3256.53 L 4098.6953 3257.14 L 4098.2853 3257.55 L 4097.6753 3257.76 L 4097.4753 3257.76 L 4096.8553 3257.55 L 4096.4453 3257.14 L 4096.2453 3256.53 L 4096.2453 3256.33 L 4096.4453 3255.71 L 4096.8553 3255.3 L 4097.6753 3255.1 L 4098.6953 3255.1 L 4099.7253 3255.3 L 4100.3353 3255.71 L 4100.5353 3256.33 L 4100.5353 3256.74 L 4100.3353 3257.35 L 4099.9253 3257.55 M 4096.2453 3252.52 L 4096.4453 3253.14 L 4097.0653 3253.54 L 4098.0853 3253.75 L 4098.6953 3253.75 L 4099.7253 3253.54 L 4100.3353 3253.14 L 4100.5353 3252.52 L 4100.5353 3252.11 L 4100.3353 3251.5 L 4099.7253 3251.09 L 4098.6953 3250.89 L 4098.0853 3250.89 L 4097.0653 3251.09 L 4096.4453 3251.5 L 4096.2453 3252.11 L 4096.2453 3252.52 M 4096.4453 3249.54 L 4097.0653 3250.15 L 4097.6753 3249.54 L 4097.0653 3248.92 L 4096.4453 3249.54 M 4096.2453 3243.81 L 4100.5353 3242.79 M 4096.2453 3241.76 L 4100.5353 3242.79 M 4096.2453 3241.76 L 4100.5353 3240.74 M 4096.2453 3239.72 L 4100.5353 3240.74 M 4096.2453 3236.32 L 4099.5153 3236.32 L 4100.1353 3236.53 L 4100.3353 3236.73 L 4100.5353 3237.14 L 4100.5353 3237.55 L 4100.3353 3237.96 L 4100.1353 3238.16 L 4099.5153 3238.37 L 4099.1053 3238.37 M 4096.2453 3234.97 L 4100.5353 3234.97 M 4096.2453 3234.97 L 4096.2453 3233.54 L 4096.4453 3232.93 L 4096.8553 3232.52 L 4097.2653 3232.31 L 4097.8853 3232.11 L 4098.9053 3232.11 L 4099.5153 3232.31 L 4099.9253 3232.52 L 4100.3353 3232.93 L 4100.5353 3233.54 L 4100.5353 3234.97 M 4097.2653 3227.69 L 4096.8553 3227.89 L 4096.4453 3228.3 L 4096.2453 3228.71 L 4096.2453 3229.53 L 4096.4453 3229.94 L 4096.8553 3230.35 L 4097.2653 3230.55 L 4097.8853 3230.76 L 4098.9053 3230.76 L 4099.5153 3230.55 L 4099.9253 3230.35 L 4100.3353 3229.94 L 4100.5353 3229.53 L 4100.5353 3228.71 L 4100.3353 3228.3 L 4099.9253 3227.89 L 4099.5153 3227.69 L 4098.9053 3227.69 M 4098.9053 3228.71 L 4098.9053 3227.69" fill="none"  stroke-width="0.6" c_note="note_name" /></g><g c_partid="part_pcbtext" c_etype="" c_origin="4107.7853,3269.54" c_rotation="90" c_mirror="" id="gge699" locked="0" layerid="3" c_shapetype="group" ><path c_fontsize="4.5" c_fontfamily="" c_text="USB1" d="M 4103.2453 3269.54 L 4106.3153 3269.54 L 4106.9253 3269.34 L 4107.3353 3268.93 L 4107.5353 3268.31 L 4107.5353 3267.9 L 4107.3353 3267.29 L 4106.9253 3266.88 L 4106.3153 3266.68 L 4103.2453 3266.68 M 4103.8553 3262.46 L 4103.4453 3262.87 L 4103.2453 3263.49 L 4103.2453 3264.3 L 4103.4453 3264.92 L 4103.8553 3265.33 L 4104.2653 3265.33 L 4104.6753 3265.12 L 4104.8853 3264.92 L 4105.0853 3264.51 L 4105.4953 3263.28 L 4105.6953 3262.87 L 4105.9053 3262.67 L 4106.3153 3262.46 L 4106.9253 3262.46 L 4107.3353 3262.87 L 4107.5353 3263.49 L 4107.5353 3264.3 L 4107.3353 3264.92 L 4106.9253 3265.33 M 4103.2453 3261.11 L 4107.5353 3261.11 M 4103.2453 3261.11 L 4103.2453 3259.27 L 4103.4453 3258.66 L 4103.6553 3258.45 L 4104.0653 3258.25 L 4104.4753 3258.25 L 4104.8853 3258.45 L 4105.0853 3258.66 L 4105.2853 3259.27 M 4105.2853 3261.11 L 4105.2853 3259.27 L 4105.4953 3258.66 L 4105.6953 3258.45 L 4106.1053 3258.25 L 4106.7253 3258.25 L 4107.1353 3258.45 L 4107.3353 3258.66 L 4107.5353 3259.27 L 4107.5353 3261.11 M 4104.0653 3256.9 L 4103.8553 3256.49 L 4103.2453 3255.88 L 4107.5353 3255.88" fill="none"  stroke-width="0.6" c_note="note_pre" /></g><g c_partid="part_pcbtext" c_etype="" c_origin="4047.6735,3269.5" c_rotation="270" c_mirror="" id="gge873" locked="0" layerid="3" c_shapetype="group" display="none"><path c_fontsize="4.5" c_fontfamily="" c_text="AM 180" d="M 4052.2135 3271.14 L 4047.9235 3269.5 M 4052.2135 3271.14 L 4047.9235 3272.77 M 4049.3535 3270.11 L 4049.3535 3272.16 M 4052.2135 3274.12 L 4047.9235 3274.12 M 4052.2135 3274.12 L 4047.9235 3275.76 M 4052.2135 3277.4 L 4047.9235 3275.76 M 4052.2135 3277.4 L 4047.9235 3277.4 M 4051.3935 3281.9 L 4051.6035 3282.3 L 4052.2135 3282.92 L 4047.9235 3282.92 M 4052.2135 3285.29 L 4052.0135 3284.68 L 4051.6035 3284.47 L 4051.1935 3284.47 L 4050.7835 3284.68 L 4050.5735 3285.09 L 4050.3735 3285.9 L 4050.1735 3286.52 L 4049.7635 3286.93 L 4049.3535 3287.13 L 4048.7335 3287.13 L 4048.3235 3286.93 L 4048.1235 3286.72 L 4047.9235 3286.11 L 4047.9235 3285.29 L 4048.1235 3284.68 L 4048.3235 3284.47 L 4048.7335 3284.27 L 4049.3535 3284.27 L 4049.7635 3284.47 L 4050.1735 3284.88 L 4050.3735 3285.5 L 4050.5735 3286.31 L 4050.7835 3286.72 L 4051.1935 3286.93 L 4051.6035 3286.93 L 4052.0135 3286.72 L 4052.2135 3286.11 L 4052.2135 3285.29 M 4052.2135 3289.71 L 4052.0135 3289.1 L 4051.3935 3288.69 L 4050.3735 3288.48 L 4049.7635 3288.48 L 4048.7335 3288.69 L 4048.1235 3289.1 L 4047.9235 3289.71 L 4047.9235 3290.12 L 4048.1235 3290.73 L 4048.7335 3291.14 L 4049.7635 3291.35 L 4050.3735 3291.35 L 4051.3935 3291.14 L 4052.0135 3290.73 L 4052.2135 3290.12 L 4052.2135 3289.71 M 4052.0135 3292.7 L 4051.3935 3292.08 L 4050.7835 3292.7 L 4051.3935 3293.31 L 4052.0135 3292.7" fill="none"  stroke-width="0.6" c_note="note_name" /></g><g c_partid="part_pcbtext" c_etype="" c_origin="4040.6735,3269.5" c_rotation="270" c_mirror="" id="gge879" locked="0" layerid="3" c_shapetype="group" ><path c_fontsize="4.5" c_fontfamily="" c_text="USB3" d="M 4045.2135 3269.5 L 4042.1435 3269.5 L 4041.5335 3269.7 L 4041.1235 3270.11 L 4040.9235 3270.73 L 4040.9235 3271.14 L 4041.1235 3271.75 L 4041.5335 3272.16 L 4042.1435 3272.36 L 4045.2135 3272.36 M 4044.6035 3276.58 L 4045.0135 3276.17 L 4045.2135 3275.55 L 4045.2135 3274.74 L 4045.0135 3274.12 L 4044.6035 3273.71 L 4044.1935 3273.71 L 4043.7835 3273.92 L 4043.5735 3274.12 L 4043.3735 3274.53 L 4042.9635 3275.76 L 4042.7635 3276.17 L 4042.5535 3276.37 L 4042.1435 3276.58 L 4041.5335 3276.58 L 4041.1235 3276.17 L 4040.9235 3275.55 L 4040.9235 3274.74 L 4041.1235 3274.12 L 4041.5335 3273.71 M 4045.2135 3277.93 L 4040.9235 3277.93 M 4045.2135 3277.93 L 4045.2135 3279.77 L 4045.0135 3280.38 L 4044.8035 3280.59 L 4044.3935 3280.79 L 4043.9835 3280.79 L 4043.5735 3280.59 L 4043.3735 3280.38 L 4043.1735 3279.77 M 4043.1735 3277.93 L 4043.1735 3279.77 L 4042.9635 3280.38 L 4042.7635 3280.59 L 4042.3535 3280.79 L 4041.7335 3280.79 L 4041.3235 3280.59 L 4041.1235 3280.38 L 4040.9235 3279.77 L 4040.9235 3277.93 M 4045.2135 3282.55 L 4045.2135 3284.8 L 4043.5735 3283.57 L 4043.5735 3284.19 L 4043.3735 3284.6 L 4043.1735 3284.8 L 4042.5535 3285 L 4042.1435 3285 L 4041.5335 3284.8 L 4041.1235 3284.39 L 4040.9235 3283.78 L 4040.9235 3283.16 L 4041.1235 3282.55 L 4041.3235 3282.35 L 4041.7335 3282.14" fill="none"  stroke-width="0.6" c_note="note_pre" /></g><path d="M 4087.6307 3289.0575 A 0.6 0.6 0 0 0 4088.2307 3288.4575" locked="0"  fill="none" stroke-width="0.6" c_helper_type="arc2" net="" layerid="3" id="gge51" /><path d="M 4088.2307 3282.5425 A 0.6 0.6 0 0 0 4087.6307 3281.9425" locked="0"  fill="none" stroke-width="0.6" c_helper_type="arc2" net="" layerid="3" id="gge54" /><path d="M 4073.3693 3289.0575 A 0.6 0.6 0 0 1 4072.7693 3288.4575" locked="0"  fill="none" stroke-width="0.6" c_helper_type="arc2" net="" layerid="3" id="gge57" /><path d="M 4072.7693 3282.5425 A 0.6 0.6 0 0 1 4073.3693 3281.9425" locked="0"  fill="none" stroke-width="0.6" c_helper_type="arc2" net="" layerid="3" id="gge60" /><path d="M 4065.5575 3249.8693 A 0.6 0.6 0 0 0 4064.9575 3249.2693" locked="0"  fill="none" stroke-width="0.6" c_helper_type="arc2" net="" layerid="3" id="gge147" /><path d="M 4059.0425 3249.2693 A 0.6 0.6 0 0 0 4058.4425 3249.8693" locked="0"  fill="none" stroke-width="0.6" c_helper_type="arc2" net="" layerid="3" id="gge150" /><path d="M 4065.5575 3264.1307 A 0.6 0.6 0 0 1 4064.9575 3264.7307" locked="0"  fill="none" stroke-width="0.6" c_helper_type="arc2" net="" layerid="3" id="gge153" /><path d="M 4059.0425 3264.7307 A 0.6 0.6 0 0 1 4058.4425 3264.1307" locked="0"  fill="none" stroke-width="0.6" c_helper_type="arc2" net="" layerid="3" id="gge156" /><path d="M 4067.915 3269.0787 L 4066.3142 3269.0735 L 4066.332 3267.2643 L 4067.915 3267.2787 Z " stroke-width="0"   net="" type="solid" layerid="3" id="gge240" locked="0" c_teardrop="" c_targetpad="" c_targetwire="" /><path d="M 4057.6852 3269.1111 L 4056.0844 3269.1059 L 4056.1022 3267.2967 L 4057.6852 3267.3111 Z " stroke-width="0"   net="" type="solid" layerid="3" id="gge243" locked="0" c_teardrop="" c_targetpad="" c_targetwire="" /><polyline points="4009 3235 4139 3235 4139 3303.7 4009 3303.7 4009 3235" stroke-width="1"  stroke-linecap="round" fill="none" layerid="10" net="" id="gge1356" locked="0" /></svg>